<svg xmlns="http://www.w3.org/2000/svg" viewBox="0 0 90 90">
  <g data-name="Layer 2">
    <path d="M45 0a45 45 0 1045 45A45 45 0 0045 0zm41.89 42.17l-.28-.4a47.32 47.32 0 00-4.47-5.32 33.79 33.79 0 00-5.45-4.65c.12-.61.23-1.24.31-1.88A43 43 0 0076.78 18l-.09-.52a41.72 41.72 0 0110.2 24.69zm-26.56 1.11a39.55 39.55 0 01-5.33.24h-.26a38.09 38.09 0 01-5-.46 48.39 48.39 0 013.7-4.38l.1-.09c.33-.32.64-.63 1-1 4-3.82 8.2-6.07 12.28-6.07a13.86 13.86 0 016.47 1.75 13.91 13.91 0 01-3.31 5.85c-2.28 2.3-5.57 3.63-9.65 4.16zm-1.9 23.5a13.86 13.86 0 01-1.75 6.47 13.91 13.91 0 01-5.85-3.31c-2.25-2.24-3.58-5.53-4.11-9.61a39.55 39.55 0 01-.24-5.33v-.26a38.09 38.09 0 01.46-5 47.07 47.07 0 014.33 3.66l.13.14 1 1c3.8 4.04 6.03 8.19 6.03 12.24zm-26.92 0c0-4 2.08-8 5.71-11.9.46-.44.92-.88 1.38-1.35.1-.11.19-.22.3-.33a44.92 44.92 0 014.16-3.49 42.9 42.9 0 01.42 4.52v3.35c0 .91-.12 1.82-.22 2.73-.53 4.08-1.87 7.36-4.11 9.61a13.81 13.81 0 01-5.88 3.32 13.84 13.84 0 01-1.76-6.46zm0-43.54a13.92 13.92 0 011.76-6.49 13.92 13.92 0 015.87 3.31c2.25 2.24 3.58 5.53 4.11 9.61.14 1.27.21 2.54.23 3.82v2a42.29 42.29 0 01-.45 4.77 44.44 44.44 0 01-4.15-3.48c-.11-.11-.21-.24-.32-.35-.44-.46-.89-.9-1.34-1.32-3.57-3.89-5.68-7.92-5.68-11.87zm26.92 0c0 3.92-2 7.93-5.62 11.81-.48.45-1 .91-1.44 1.4l-.36.4a44.85 44.85 0 01-4.1 3.43 38.83 38.83 0 01-.42-4.56V32.8c0-.97.11-2.07.23-3.11.53-4.08 1.87-7.36 4.11-9.61a13.7 13.7 0 015.84-3.31 13.89 13.89 0 011.79 6.47zm-9.7-5.32A16.12 16.12 0 0045 24.05 16.58 16.58 0 0041.27 18a16.34 16.34 0 00-6.34-3.86A31.28 31.28 0 0138.54 10a46.61 46.61 0 015-4.19l1.46-1c.4.25.89.59 1.46 1a46.61 46.61 0 015 4.19A33.06 33.06 0 0155 14.12a16.61 16.61 0 00-6.24 3.8zm-7.52 54.16A16.13 16.13 0 0045 66a16.56 16.56 0 003.74 6.1A16.18 16.18 0 0055 75.9a32.58 32.58 0 01-3.57 4.1 46.61 46.61 0 01-5 4.19L45 85.2c-.4-.25-.89-.59-1.46-1a46.61 46.61 0 01-5-4.19 33.13 33.13 0 01-3.58-4.12 16.6 16.6 0 006.25-3.81zm25.56-43.63A16 16 0 0060 30.06a16.11 16.11 0 001.6-6.84 16.16 16.16 0 00-1.77-7.14l.68-.11a39.8 39.8 0 0111.06.28c.75.12 1.4.24 1.91.34.11.51.22 1.15.34 1.91a39.8 39.8 0 01.28 11.06c0 .22-.07.44-.1.66a16.22 16.22 0 00-7.23-1.77zM72 13.21a42.74 42.74 0 00-11.9-.29c-.67.09-1.32.21-2 .34a35.76 35.76 0 00-4.6-5.41 47.32 47.32 0 00-5.32-4.47c-.13-.1-.26-.18-.39-.27A41.78 41.78 0 0172.53 13.3zM41.77 3.39a47.32 47.32 0 00-5.32 4.47 33.79 33.79 0 00-4.65 5.45c-.61-.12-1.24-.23-1.88-.31a42.67 42.67 0 00-11.92.23l-.6.1A41.74 41.74 0 0142.17 3.11zM16 29.54a39.8 39.8 0 01.28-11.06c.12-.75.24-1.4.34-1.91a36.6 36.6 0 011.91-.34A39.8 39.8 0 0129.56 16l.66.1a16.22 16.22 0 00-1.77 7.18 16 16 0 001.61 6.82 16.11 16.11 0 00-6.84-1.6 16.16 16.16 0 00-7.14 1.77c-.08-.27-.08-.5-.08-.73zm7.25 2c3.9 0 7.88 2 11.74 5.56.48.51 1 1 1.49 1.53.14.14.29.26.44.39a47.28 47.28 0 013.4 4.07 39.2 39.2 0 01-4.57.42h-2.92c-.97 0-2.07-.11-3.11-.23-4.08-.53-7.36-1.87-9.61-4.11a13.81 13.81 0 01-3.32-5.88 13.84 13.84 0 016.43-1.78zm-5.3 9.7A16.17 16.17 0 0024.09 45 16.55 16.55 0 0018 48.73a16.21 16.21 0 00-3.85 6.33A31.67 31.67 0 0110 51.43a46.61 46.61 0 01-4.19-5L4.8 45c.25-.4.59-.89 1-1.46a46.61 46.61 0 014.19-5 33.13 33.13 0 014.12-3.58 16.6 16.6 0 003.81 6.25zm2.14 9.62c2.24-2.25 5.53-3.58 9.61-4.11a39.55 39.55 0 015.3-.27h.26a38.09 38.09 0 015 .46 47.07 47.07 0 01-3.66 4.33l-.14.13-1 1c-4 3.77-8.15 6-12.2 6a13.86 13.86 0 01-6.47-1.75 13.91 13.91 0 013.27-5.82zm3.17 10.7a16.08 16.08 0 006.83-1.61 16 16 0 00-1.61 6.85 16.2 16.2 0 001.77 7.15l-.68.11a39.8 39.8 0 01-11.06-.28c-.75-.12-1.4-.24-1.91-.34a36.6 36.6 0 01-.34-1.91A39.8 39.8 0 0116 60.44c0-.23.07-.45.11-.68a16.15 16.15 0 007.12 1.77zM18 76.74a42.85 42.85 0 0011.86.34c.68-.09 1.35-.21 2-.35a35.1 35.1 0 004.59 5.41 47.32 47.32 0 005.32 4.47l.4.28a41.73 41.73 0 01-24.78-10.25zm30.23 9.87a47.32 47.32 0 005.32-4.47 34.14 34.14 0 004.61-5.4c.62.13 1.26.23 1.91.32A42.74 42.74 0 0072 76.77l.6-.1a41.74 41.74 0 01-24.77 10.22zM74 60.46a39.8 39.8 0 01-.28 11.06c-.12.75-.24 1.4-.34 1.91-.51.11-1.15.22-1.91.34a39.8 39.8 0 01-11.06.28l-.66-.1a15.35 15.35 0 00.16-14 15.35 15.35 0 0014-.17c.09.22.09.45.09.68zm-7.25-2c-3.9 0-7.88-2-11.74-5.56-.48-.51-1-1-1.49-1.53-.14-.14-.29-.26-.44-.39a47.28 47.28 0 01-3.4-4.07 39.2 39.2 0 014.57-.42h2.92c.97 0 2.07.11 3.11.23 4.08.53 7.36 1.87 9.61 4.11a13.81 13.81 0 013.32 5.88 13.84 13.84 0 01-6.43 1.78zm5.3-9.7A16.17 16.17 0 0065.91 45 16.55 16.55 0 0072 41.27a16.21 16.21 0 003.85-6.33A31.67 31.67 0 0180 38.57a46.61 46.61 0 014.19 5l1 1.46c-.25.4-.59.89-1 1.46a46.61 46.61 0 01-4.19 5 33.13 33.13 0 01-4.12 3.58 16.6 16.6 0 00-3.8-6.28zM13.36 17.39c0 .21-.07.4-.1.61a42.85 42.85 0 00-.34 11.86c.09.68.21 1.34.35 2a34.24 34.24 0 00-5.42 4.6 47.32 47.32 0 00-4.47 5.32c-.1.13-.18.26-.27.39a41.83 41.83 0 0110.25-24.78zM3.1 47.8l.29.41a47.32 47.32 0 004.47 5.32 33.84 33.84 0 005.46 4.65c-.13.62-.24 1.25-.32 1.9A42.67 42.67 0 0013.23 72c0 .21.07.4.1.6A41.87 41.87 0 013.1 47.8zm73.54 24.81c0-.21.07-.4.1-.61a42.85 42.85 0 00.34-11.86c-.09-.68-.21-1.35-.35-2a35.1 35.1 0 005.41-4.59 47.32 47.32 0 004.47-5.32l.28-.4a41.73 41.73 0 01-10.25 24.78z" data-name="Layer 1"/>
  </g>
</svg>
