<svg xmlns="http://www.w3.org/2000/svg" fill="none" viewBox="0 0 157 66">
  <path fill-rule="evenodd" clip-rule="evenodd" d="M44.959 54.044a3.057 3.057 0 01-1.188-.486 3.34 3.34 0 01-.922-.948c-.509-.776-.665-1.655-.48-2.633.187-.978.65-1.714 1.375-2.216.726-.502 1.526-.663 2.412-.486.642.128 1.188.4 1.642.823.453.42.755.958.904 1.618-.332-.058-.664-.118-.997-.179-.256-.82-.815-1.312-1.68-1.485-.676-.135-1.273-.014-1.8.369-.527.382-.865.963-1.01 1.749-.145.784-.039 1.466.325 2.041.366.575.89.935 1.566 1.07.677.133 1.255.04 1.728-.28.475-.322.795-.817.968-1.487a116.07 116.07 0 01-2.617-.503l.117-.691c1.16.235 2.32.453 3.482.657l-.103.694c-.193.82-.678 1.524-1.348 1.956-.688.455-1.484.596-2.374.417zm10.712-.55c.79.096 1.582.184 2.372.266-.294-1.201-.58-2.403-.856-3.605a243.6 243.6 0 01-1.516 3.338zm2.934 2.519l-.381-1.53a129.96 129.96 0 01-2.865-.32l-.66 1.411-.873-.112a251.019 251.019 0 003.023-6.435c.299.034.599.069.9.1.546 2.326 1.127 4.65 1.741 6.97l-.885-.084zm7.904-5.517l-.089 2.557c.412.017.824.032 1.237.044.46.015.805-.088 1.034-.308.229-.218.346-.529.353-.934.016-.853-.424-1.288-1.319-1.315-.405-.013-.81-.027-1.216-.044zm-.114 3.26l-.096 2.79-.859-.039.272-6.76c.677.033 1.354.059 2.033.081.703.023 1.236.22 1.603.598.365.38.546.833.54 1.371-.008.537-.15.983-.434 1.337-.281.352-.703.569-1.26.646a185.21 185.21 0 001.735 2.867l-1.076-.018a194.528 194.528 0 01-1.633-2.841l-.825-.032zm10.538 2.13c.4-.013.8-.031 1.2-.05.82-.036 1.435-.307 1.842-.799.407-.494.584-1.163.538-2-.046-.84-.293-1.478-.735-1.92-.443-.444-1.058-.644-1.85-.607-.386.018-.774.033-1.161.048l.166 5.327zm.966-6.127c1.012-.047 1.822.212 2.443.785.618.572.966 1.382 1.028 2.435.064 1.053-.187 1.895-.76 2.521-.574.627-1.395.97-2.45 1.02a134.3 134.3 0 01-2.064.078l-.175-6.765c.66-.02 1.32-.044 1.978-.074zm12.227-1.132l.082.698c-.829.115-1.66.224-2.491.324l.234 2.29c.752-.09 1.503-.188 2.253-.292l.081.689c-.754.104-1.508.202-2.264.293l.239 2.348c.861-.105 1.72-.216 2.578-.335l.084.697c-1.148.16-2.295.305-3.445.437l-.65-6.729c1.1-.127 2.2-.265 3.3-.42zm9.912-1.773l.809-.18 1.262 6.627c-.281.062-.563.125-.845.186a156.194 156.194 0 01-4.266-4.589l.86 5.288-.85.163-1.047-6.672.812-.153a156.402 156.402 0 004.239 4.595l-.974-5.265zM57.462 64.882l.131-1.007.648-.435c.278-.186.491-.33.643-.436.151-.106.33-.24.533-.403a3.39 3.39 0 00.462-.425c.275-.313.426-.598.454-.853.047-.45-.113-.699-.486-.747a.485.485 0 00-.239.015.517.517 0 00-.207.129c-.12.121-.196.306-.226.56a82.92 82.92 0 01-1.234-.181c.082-.634.318-1.088.7-1.36.383-.275.849-.374 1.403-.3.554.075.967.298 1.244.677.276.38.393.81.347 1.294-.035.364-.14.678-.32.936-.105.149-.197.276-.274.378-.11.138-.234.264-.369.374-.169.146-.294.252-.372.317a11.79 11.79 0 01-.436.33c-.21.156-.346.257-.403.301a85 85 0 001.997.247l-.105 1.108a93.714 93.714 0 01-3.891-.519zm11.183-3.296a.766.766 0 00-.376-.106.743.743 0 00-.382.076.69.69 0 00-.255.216c-.07.107-.123.227-.154.354-.042.146-.071.29-.087.428a7.61 7.61 0 00-.041.99c.004.141.02.285.05.436.03.151.072.273.127.365a.686.686 0 00.246.243c.118.069.25.105.385.108a.776.776 0 00.392-.078.715.715 0 00.261-.218c.07-.109.121-.23.152-.357.04-.147.067-.29.081-.43.014-.139.023-.303.028-.494a7.303 7.303 0 00-.001-.497 2.725 2.725 0 00-.058-.434 1.183 1.183 0 00-.128-.366.714.714 0 00-.24-.236zm-1.313-1.217c.28-.129.607-.185.98-.17.376.016.699.098.968.25.27.154.483.363.638.635.153.271.265.575.335.916.07.34.103.724.096 1.15 0 .386-.045.77-.132 1.145a2.96 2.96 0 01-.379.903 1.613 1.613 0 01-.693.597c-.328.142-.68.204-1.032.18a2.24 2.24 0 01-1.015-.263 1.648 1.648 0 01-.65-.654 2.966 2.966 0 01-.316-.928 5.27 5.27 0 01-.053-1.155c.023-.426.082-.805.175-1.139.093-.335.226-.63.398-.886.173-.256.399-.45.68-.58zM75.82 66l-.151-4.407c-.302.013-.604.023-.906.032l-.032-1.27c.735-.024 1.47-.055 2.205-.096l.264 5.676c-.46.026-.92.048-1.38.065zm8.803-5.032a.702.702 0 00-.07-.261.648.648 0 00-.163-.209.604.604 0 00-.478-.12.658.658 0 00-.443.243.702.702 0 00-.128.52.7.7 0 00.07.268.616.616 0 00.647.338.64.64 0 00.437-.252.709.709 0 00.128-.526zm.375 2.393a.828.828 0 00-.08-.293.77.77 0 00-.18-.237c-.146-.124-.338-.171-.577-.138a.832.832 0 00-.556.28.75.75 0 00-.138.275.79.79 0 00-.02.313.827.827 0 00.083.306c.046.095.11.178.188.245.158.13.362.178.61.147.249-.035.43-.134.542-.302a.865.865 0 00.128-.596zm-2.927-2.276c-.04-.435.088-.826.383-1.177.294-.352.735-.563 1.327-.642.592-.077 1.067.014 1.428.281a1.5 1.5 0 01.628 1.05c.071.549-.107.996-.54 1.34.592.204.935.638 1.023 1.31a1.72 1.72 0 01-.048.765c-.073.247-.201.47-.372.652-.355.39-.835.626-1.432.704-.599.08-1.117-.026-1.55-.314a1.528 1.528 0 01-.506-.534 1.688 1.688 0 01-.218-.729c-.061-.673.176-1.184.705-1.536-.501-.222-.776-.613-.828-1.17z" fill="#000"/>
  <path fill-rule="evenodd" clip-rule="evenodd" d="M21.125 6.871a7.151 7.151 0 01-.276-.814 70.664 70.664 0 00-.344-1.082c-.173-.537-.346-1.07-.529-1.693-.39-1.304-.975-2.092-1.788-2.348-.753-.086-1.559-.138-2.332.049-2.87.606-5.772 2.104-8.59 4.453a18.321 18.321 0 00-4.288 5.639c-.908 1.69-1.353 3.637-1.369 5.952-.003 2.304.695 4.217 2.173 6.039l.027.03c.502.491 1.058.984 1.717 1.247l.08.015c.477.005.8.13.863.335.256.816-1.578 3.453-2.656 5.035-.75 1.1-1.454 2.139-1.772 2.855C.797 35.116.12 38.019.017 41.202c-.146 3.827.663 6.89 2.335 9.093.056.085.123.175.198.272.14.184.299.388.419.669l.07.117c1.14 1.325 2.524 2.06 4.015 2.13.33.01.663-.013 1.002-.07.817-.134 1.659-.463 2.514-.983l.063-.052c.226-.265.406-.373.53-.362.296.109.528-.142.697-.328.068-.077.165-.182.21-.19l.047-.006c.328-.225.666-.433 1.013-.623.318-.18.638-.361.928-.563.447-.193.873-.493 1.323-.808.208-.146.422-.296.637-.436.534-.299 1.087-.608 1.67-1.103.983-.82 1.991-2.122 2.856-3.264.642-.781 1.058-1.735 1.4-2.588.18-.296.348-.484.56-.626l.242-.161a27.73 27.73 0 00-.108-.372c-.285-.992-.705-1.808-1.238-2.427-.14-.253-.307-.526-.548-.543-.257-.012-.454.264-.662.612a9.94 9.94 0 01-2.447 2.352c-.416.23-.832.458-1.248.69-.652.359-1.3.723-1.947 1.093-.802.56-1.662 1.078-2.49 1.582-.658.394-1.307.806-1.947 1.234-.979.509-2.15 1.076-3.414 1.414-.554.105-1.132.164-1.661-.179-.416-.27-.812-1.919-.796-2.685.12-6.023 6.742-16.65 9.53-19.612.542-.641.912-1.224 1.166-1.853.34-.938.659-1.525 1.1-2.028l.133-.15a9.4 9.4 0 01-.031-.242l-.046-.267c-.235-.691-.536-.987-1.07-1.019-.941.064-1.71.337-2.325.804-1.213.693-2.546 1.203-4.095 1.573-2.325.784-2.604.332-2.606.33 0-.004-.085-.59 1.523-2.408 2.783-3.155 7.165-6.127 7.742-5.648l.127.225.194-.071a7.372 7.372 0 012.192-.47c1.209-.104 2.272-1 3.114-2.693.539-1.023.685-2.09.412-3.227-.057-.155-.115-.31-.175-.464" fill="#272525"/>
  <path fill-rule="evenodd" clip-rule="evenodd" d="M48.856 13.153c-.11.378-.245.747-.406 1.103-.112.26-.238.555-.377.976-.15.327-.357.721-.605.84-.388.113-.635.17-.798-.017-.113-.17-.275-.26-.42-.34-.033-.021-.068-.04-.102-.06-.026-.014-.061-.037-.07-.066-.004-.015-.02-.103.081-.337a5.23 5.23 0 01.242-.487l.063-.118c.11-.173.216-.357.323-.537.29-.487.59-.992.96-1.352.464-.494 1.105-.778 1.26-.635.056.05.096.326-.151 1.03zm17.54-.765c.015-.036.034-.072.054-.11a.982.982 0 00.15-.536 2.71 2.71 0 01.312-.839c.102-.186.205-.364.305-.537l.214-.37-.12.548c-.028.153-.05.308-.074.464a7.192 7.192 0 01-.166.884c-.255 1.221-.276 2.309-.067 3.239.223.909.695 1.521 1.262 1.67.134.065.27.112.404.16.178.061.345.12.504.222.166.17.405.172.645-.006a.937.937 0 01.311-.174c.266-.002.46-.1.71-.355.032-.018.08-.044.132-.099l.074-.077.001-.015a.665.665 0 00.083-.075c.04-.04.08-.083.12-.127.182-.1.323-.27.395-.478a2.39 2.39 0 00.085-.176.84.84 0 00.243-.284.918.918 0 00.103-.371l.01-.115-.057-.095c-.05-.077-.228-.32-.429-.315-.229.002-.375.243-.404.294-.193.244-.376.392-.58.558l-.068.085a.362.362 0 01-.06.07c-.028.032-.062.065-.094.11l-.099-.01c-.053-.006-.112-.016-.165-.012a.793.793 0 00-.072-.11c.038-.284.052-.563.064-.836.008-.16.016-.317.028-.475a19.9 19.9 0 01.049-.522c.054-.557.11-1.132.08-1.685-.019-.425-.054-.85-.087-1.265-.025-.323-.052-.642-.07-.903l.024-.288-.022-.067c-.211-.63-.553-1.351-1.324-1.35h-.022a4.69 4.69 0 00-.45.036c-.153.017-.312.035-.516.043-.38.08-.738.37-.99.807-.26.482-.55.943-.87 1.382-.261.519-.571 1.004-.87 1.473l-.036.059c-.402.686-2.284 4.619-2.516 5.497v.005c-.14.541-1.05 1.69-1.398 1.876.026-.247.08-.49.16-.722.3-1.045.76-2.03 1.247-3.069.469-1 .956-2.034 1.337-3.202.131-.493.193-.547.247-.596.138-.123.248-.255.405-.82.364-1.075.338-1.831-.13-2.839-.135-.19-.272-.364-.405-.535-.299-.38-.58-.74-.779-1.19-.022-.028-.041-.059-.062-.089-.433-.42-.776-.511-1.067-.548-.44-.083-.895-.172-1.227-.142-.62-.093-.92.144-1.157.91-.405.843-.726 1.693-1.063 2.595l-.091.246a3.02 3.02 0 01-.16.416c-.09.206-.184.42-.211.626-.555 1.605-.595 1.866-.733 2.728-.05.315-.116.714-.215 1.266-.21.747-.274 1.11-.316 1.463-.046.08-.087.16-.128.236-.381.637-.81 1.236-1.445 2.016a30.8 30.8 0 01-.414.563c-.15.2-.3.397-.44.6l-.126.158c-.341.36-.677.727-1.007 1.1-.436.486-.884.988-1.333 1.444-1.08 1.11-2.091 1.889-3.084 2.376-.409.151-1.465.51-1.707.524a.074.074 0 00-.032.002c-.587.033-1.3-.681-1.877-1.254l-.108-.1a7.745 7.745 0 01-.302-.69c-.16-.395-.27-.657-.356-.794a2.336 2.336 0 01-.175-.796c-.01-.39-.018-.727-.078-1.121l-.015-.284-.145.024c.005-.076.014-.151.02-.226l.248-.042.208-.088-.01-.4-.087-.086-.035-.029c.16-.112.238-.253.286-.52l.053-.132c.139-.112.276-.308.271-.538-.002-.125.044-.246.097-.387a3.47 3.47 0 00.072-.208c.16.27.299.569.436.859l.125.26c.014.045.031.085.05.127.009.024.024.059.012.12l-.024.13a.854.854 0 00.186.48l.072.05c.069.028.147.098.232.172.165.147.384.34.649.325h.007c.131.171.294.174.388.177.025 0 .05 0 .113.01.334.019.703-.105.977-.312.417-.198.768-.59.958-1.06l.107-.232c.152-.323.297-.633.374-.957.103-.335.239-.618.381-.915l.12-.252c.422-.883.66-1.617.746-2.289.152-.746.117-1.37.014-2.078l-.03-.114c-.049-.173-.109-.39-.26-.541-.216-.182-.37-.505-.537-.847a12.174 12.174 0 00-.16-.324c-.106-.223-.226-.478-.434-.607-.284-.176-1.008-.34-1.707-.496-.43-.096-.837-.185-1.049-.258l-.036-.062c-.059-.106-.138-.25-.24-.303a.474.474 0 00-.307-.117.392.392 0 01-.119-.023c-.294-.425-.755-.147-.943-.029-.085.078-.17.134-.267.197a3.94 3.94 0 00-.212.148 13.518 13.518 0 00-2.177 2.463 17.124 17.124 0 00-1.726 2.85 20.026 20.026 0 00-1.245 3.069c-.025.082-.053.16-.08.24-.115.336-.235.682-.216 1.137l.048 1.115.4-1 .009-.02c-.098.429-.17.852-.226 1.272-.17.224-.331.43-.496.505a3.472 3.472 0 00-.682.417c-.141.103-.286.211-.457.308-.469.216-.826-.162-1.276-.717a2.96 2.96 0 00-.416-.45l-.065-.146c-.522-1.134-.716-1.56-1.11-3.508a1.72 1.72 0 00-.092-.201l-.022-.102c-.082-.22-.183-.33-.391-.397l-.082-.017c-.13-.03-.309-.073-.472.017l-.05.012a.464.464 0 00-.208-.125c-.22-.113-1.155-.112-1.392-.05-.424.225-.565.334-.47.894.023.136.057.329.078.614l.028.125c.337 1.09.368 1.33.372 1.344-.102.565-.17.641-.265.743-.17.186-.328.405-.519 1.137a6.148 6.148 0 00-.394 1.367 7.297 7.297 0 01-.586 1.739l-.601 1.327c-.412 1.065-.887 1.984-1.385 2.958l-.272.535-.002.002a.058.058 0 00-.01-.017s0-.035.037-.121a8.72 8.72 0 01.102-.234l-.138-.117-.04-.109a.476.476 0 01-.046-.108l-.036-.104a3.134 3.134 0 00-.176-.847c-.016-.095-.05-.159-.058-.147l-.071-.713-.429.706-.04.12a9.652 9.652 0 00-.037.27 4.243 4.243 0 00-.063-.237 13.957 13.957 0 01-.132-.926l.07.183.462.053.054-.228c.11-.45.113-.494.067-.956a5.075 5.075 0 01-.155-1.184 19.095 19.095 0 00-.195-1.608l-.042-.442c-.059-.64-.127-1.362-.376-1.993-.01-.07-.025-.148-.042-.238a4.183 4.183 0 01-.067-.42l-.046-.285c-.086-.556-.169-1.079-.434-1.52-.088-.172-.083-.287-.047-.49.114.017.208-.037.34-.073l.23-.062-.052-.284c-.078-.435-.292-.68-.482-.893-.084-.096-.17-.19-.241-.307l-.08-.086c-.084-.053-.17-.103-.257-.156-.265-.155-.515-.302-.7-.556a10.586 10.586 0 01-.1-.129c-.099-.085-.308-.183-.468-.14l-.11.027a1.44 1.44 0 00-.172-.195c-.162-.124-.2-.174-.207-.183l-.064-.073c-.257-.197-.57-.171-.776.06l-.05.083c-.056.134-.09.278-.102.425l-.023.175c-.001.25.006.31.013.384.007.062.014.138.024.326-.077.431-.062.85-.048 1.255l.01.352a26.76 26.76 0 01-.25 2.609 61.517 61.517 0 00-.237 2.651 120.07 120.07 0 01-.162 1.988c-.027.34-.045.667-.063.987-.02.375-.04.74-.074 1.109a23.56 23.56 0 00-.072 1.407c-.016.483-.031.941-.075 1.402 0 .117-.004.235-.008.355-.011.29-.022.589.014.846-.04.671.692 1.851 1.07 2.148.093.076.28.18.6.358.372.207 1.145.639 1.253.809.18.349.433.573.734.652.117.03.239.038.362.023a1.36 1.36 0 00.745-.352l.127-.06c.243-.114.452-.216.57-.257.21.006.403-.047.548-.09a.95.95 0 00.372-.209 1.05 1.05 0 00.257-.36c.619-.72.838-1.474 1.025-2.244.113-.45.272-.853.558-1.407.021-.07.045-.14.067-.206.098-.294.21-.628.136-.948 0-.021.004-.056.008-.088.007-.047.012-.095.014-.143.142-.61.283-1.037.469-1.431.382-.61.6-1.124.7-1.66.024-.047.045-.097.068-.148.036-.08.064-.148.113-.202l.054-.087c.244-.61.422-1.198.592-1.768.107-.358.215-.71.336-1.064.119-.364.179-.596.23-.784a3.38 3.38 0 01.174-.546c.121.182.23.332.337.48.2.28.39.542.645.985l.058.07.234.187c.18.138.6.467.648.514l.054.073c.027.024.056.048.637.394l.001.071.19.03c.03.01.09.037.169.073.712.316 1.42.562 1.824.219.208-.091.803-.363 1.26-.678v.023c.083.782.165 1.59.446 2.305.19.487.473.901.772 1.132.2.162.372.344.552.537.485.514 1.03 1.097 2.25 1.458.482.129 2.347.26 3.406.201.257-.016.468-.042.597-.085a6.99 6.99 0 001.674-.64l.377-.206c.47-.17.98-.487 1.524-.95.267-.245.539-.441.83-.658.087-.085.174-.16.26-.235.098-.085.194-.168.274-.25a4.32 4.32 0 00.466-.474c.064-.072.131-.145.232-.253.45-.475.918-.966 1.348-1.565a8.09 8.09 0 01.788-.99c.196-.242.352-.436.51-.747l.155-.298-.181-.088.02-.027c.084-.112.2-.265.24-.522l.073-.45c.066-.093.133-.19.204-.308.078-.182.17-.34.265-.5a139.245 139.245 0 00-.22 3.449c-.023.9-.045 1.92.078 2.871.194 1.308.636 2.031 1.348 2.218.158.158.3.196.427.12.196.04.397.067.6.06.492-.012.993-.223 1.434-.961.025-.032.054-.056.08-.08.09-.067.16-.16.203-.268.4-.553 1.556-3.056 1.648-3.335.06-.169.128-.334.193-.496.112-.28.217-.545.288-.79.244-.78.564-1.484.903-2.23.176-.386.353-.774.52-1.175.13-.309.268-.602.404-.89.198-.423.405-.862.582-1.342.32-.965.717-1.792 1.273-2.854zM123.672 47.4c.012-.33.183-.61.514-.83a4.7 4.7 0 01.853.102l.152.02c.949.13 1.93.268 2.951.322 1.327-.084 2.038-.034 2.416.026.328.052.406.122.419.113-.06.242-.775.758-2.115 1.547l-.034.024c-1.517 1.317-3.115 1.03-4.117.323-.649-.458-1.058-1.104-1.039-1.647zm-55.89-9.681c.284-.105.534-.16.849-.215l.172-.041c.942-.225 1.917-.45 2.91-.771 1.922-.86 2.537-.91 2.715-.909.04.002.058.005.063.002 0 .252-.569 1.006-1.675 2.248l-.028.035c-1.156 1.811-2.771 2.125-3.909 1.819-.737-.198-1.285-.663-1.397-1.19-.068-.32.034-.647.3-.978zm49.353-30.267a1.839 1.839 0 01-.296.615 28.216 28.216 0 00-1.871 2.293c-.385.439-.815.812-1.228 1.174-.495.416-.954.88-1.371 1.388l-.403.472c-.585.416-.835.502-.932.516.034-.375.611-1.496.932-2.115.174-.337.342-.663.487-.966.26-.675.642-1.236 1.048-1.832.319-.447.613-.915.878-1.4.13-.315.353-.615.607-.96.201-.313.344-.604.376-.943.032-.117.074-.206.38-.317.298-.186.678-.456.945-.85.304-.28.594-.606.653-1.047a.72.72 0 01.12-.178 2.02 2.02 0 00.095-.126c.082-.07.17-.136.259-.205.288-.223.613-.476.846-.825.017-.027.078-.051.134-.073.059-.022.116-.047.116-.056.2-.057.261-.03.278-.016.011.009.05.053.077.24a5.727 5.727 0 01-.15.846c-.439 1.335-.851 2.595-1.633 3.602-.198.23-.285.537-.347.763zm-14.948 13.184a4.947 4.947 0 00-.25 1.145c-.058.171-.104.335-.15.498-.047.162-.093.324-.164.538-.003.018-.021.058-.033.086-.018.041-.041.091-.059.148-.24.34-.524.641-.843.895-.169.147-.338.293-.508.438a17.57 17.57 0 00-1.032.928l-.127.105c-.182.152-.37.308-.587.403-.228-.992.051-1.908.361-2.69l.317-.477c.204-.308.4-.599.602-.874.064-.076.125-.157.181-.24.046-.066.09-.131.145-.195l.017-.02c.163-.226.31-.45.452-.667.307-.47.598-.913 1.051-1.302.997-1.222 1.368-1.242 1.424-1.237l.008.001c.074.103.021.883-.805 2.517zm54.426 15.442c.128-.272.258-.542.388-.81l-.496.173-.036-.044-.153.126a4.549 4.549 0 01-.461.316c-.555.365-.995.64-1.475.898a65.88 65.88 0 01-3.611 1.731l-.621.24c-6.179 2.438-7.716 2.574-7.96 2.198-.021-.033.001-.14.043-.241.198-.363 1.518-1.931 2.494-3.073.73-.858 1.364-1.595 1.576-1.881.72-1.027 2.516-2.726 2.934-3.087.079-.085.163-.164.248-.243.236-.218.503-.466.654-.82.094-.14.767-.692.989-.874l.149-.125c.261-.083.481-.274.615-.53.392-.454.48-1.225.498-1.54.012-.214.035-.933-.23-1.296-.26-.299-.451-.334-.836-.144-.296.049-.509.23-.733.425a1.585 1.585 0 01-.055.051c-.138.085-.275.169-.409.254-.434.271-.843.528-1.274.707l-.057.033c-.504.414-.634.563-.739.684-.103.12-.171.196-.756.608-.656.413-3.28 1.495-5.793 2.358-3.722 1.278-4.946 1.254-5.08 1.057 0-.052.033-.592 2.463-2.495.226-.154.408-.31.573-.448.134-.114.252-.215.402-.314.241-.21.501-.394.752-.578.402-.288.782-.56 1.063-.884l.383-.338c.454-.398.923-.809 1.249-1.164.288-.197.521-.415.726-.611.174-.165.327-.305.479-.408l.05-.043c.438-.502.734-.954.844-1.623.182-.66.363-1.64-.146-2.586-.003-.018-.003-.042-.004-.065-.005-.087-.009-.19-.031-.314a4.841 4.841 0 00-.214-.692l-.233-.38c-.319-.485-.86-1.295-.894-1.665l-.009-.08-.039-.062a9.176 9.176 0 01-.163-.275c-.056-.094-.11-.188-.159-.264a8.386 8.386 0 00-.097-.155l-.153.052c-.373.126-.544.237-.796.399a9.664 9.664 0 00-1.488 1.197c-.449.26-.991.925-1.513 1.568-.336.416-.652.806-.9 1.035a4.843 4.843 0 01-.074.11c-.123.324-.523.788-.844 1.16-.184.2-.354.413-.51.64-.406.708-.751 1.186-1.084 1.648a12.86 12.86 0 00-.778 1.171l-.008.005a.445.445 0 00-.151.044c-.435.223-1.043.68-1.627 1.122-.542.41-1.098.835-1.474 1.04-.147.08-.3.142-.454.206a4.131 4.131 0 00-.455.212c-.413.114-.773.196-1.128.28l-.075.02c-.243.07-.489.12-.739.152l-.234.041c-.329.037-.631-.018-.928-.068-.087-.03-.136-.09-.15-.149a7.22 7.22 0 01.012-1.298 1.97 1.97 0 01.4-.853c.378-.379.775-.808 1.108-1.2l.051-.048a.676.676 0 00.196-.313c.127-.529.273-1.13.072-1.818-.058-.135-.113-.269-.162-.378-.21-.613-.651-.784-1.054-.87l-.102-.022-.084.079c-.459.44-.903.842-1.344 1.24l-.167.152c-.334.308-.705.563-1.085.829a3.417 3.417 0 00-.557.377 2.925 2.925 0 01-.872.593 13.45 13.45 0 00-1.501.748c.194-.3.423-.591.686-.872a.937.937 0 01.241-.217l.134-.107c.187-.145.368-.3.542-.463l.406-.341c.391-.334.761-.647 1.164-.91.272-.152.535-.32.79-.503.423-.355.928-.614 1.418-.864.207-.107.413-.211.614-.322l.076-.071c.418-.16.852-.316 1.298-.367.575-.125.869-.466.957-1.144a4.8 4.8 0 000-.24c-.003-.066-.003-.132-.004-.274-.053-.35-.201-.652-.345-.944a6.009 6.009 0 01-.15-.318.641.641 0 00-.141-.2.567.567 0 00-.2-.125c-.059-.021-.116-.088-.182-.167a1 1 0 00-.314-.28c-.072-.26-.27-.37-.432-.463l-.137-.073c-.042-.015-.101-.079-.188-.168-.122-.088-.26-.163-.394-.237a1.862 1.862 0 01-.466-.312l-.232-.107a4.701 4.701 0 00-.921-.19 1.323 1.323 0 00-.567-.039 8.174 8.174 0 00-2.339 1.052c-.952.676-2.025 1.447-2.912 2.282a.6.6 0 00-.199.169c-.584.406-1.074.937-1.518 1.433-.181-.264-.4-.529-.667-.53-.272.001-.453.26-.682.591a6.158 6.158 0 01-.539.696 54.13 54.13 0 00-1.477 1.657c-.837.966-1.699 1.967-2.694 2.902a15.458 15.458 0 00-1.337 1.953c-.243.408-.417.703-.689.988a8.409 8.409 0 00-.874 1.01c-.307.332-.391.473-.384.65a5.83 5.83 0 01-.202.201c-.063.068-.148.12-.229.172l-.095.06c-.154.038-.272.087-.391.135-.229.096-.444.184-.983.166l-.176-.311c-.347-.609-.646-1.13-.773-1.859l-.032-.094a.677.677 0 01-.079-.224l.184.042-.144-.274c.07-.161.067-.381-.01-.662a1.146 1.146 0 00-.149-.643c-.018-.684-.032-1.333.086-2.036.01-.101.037-.198.062-.298.054-.219.117-.466.064-.759l-.008-.05a.09.09 0 00.008-.023l.306-1.31c.139-.357.277-.74.27-1.154.017-.152.051-.3.101-.444l.052-.175a.697.697 0 00.158-.226.76.76 0 00.061-.275c.032-.118.071-.23.11-.337.063-.179.13-.36.159-.564a7.42 7.42 0 00.571-1.185c.12-.332.3-.741.539-1.22.093-.192.159-.315.305-.39l.081-.069c.189-.241.254-.434.309-.59.06-.173.099-.287.328-.484l.054-.045c.557-.47 1.19-1.002 1.555-1.669.196-.247.476-.434.736-.611a2.35 2.35 0 001.076-.874c.275-.472.62-.839 1.085-1.145.322-.29.66-.707.995-1.244a4.4 4.4 0 01.349-.602l.09-.146c.32-.38.587-.765.835-1.123.264-.34.585-.728.958-1.05.226-.225.427-.518.584-.849a.504.504 0 00.093-.24c.417-.401.57-.93.682-1.32.166-.396.32-.742.47-1.074.231-.474.321-.97.409-1.45l.073-.384v-.04c-.006-.194-.011-.411-.117-.607a.592.592 0 00-.041-.056 4.379 4.379 0 01-.452-.63 3.86 3.86 0 00-.515-.688c-.694-.673-1.45-.863-2.184-.548-.484.206-.979.38-1.481.522a11.74 11.74 0 01-.236.096 3.247 3.247 0 00-.518.241 17.37 17.37 0 01-1.616.889c-.602.384-1.111.893-1.625 1.412a43.67 43.67 0 01-1.734 2.07 8.214 8.214 0 00-.129.225c-.109.19-.203.355-.372.548-.259.43-.569.86-.889 1.307-.177.328-.36.666-.567.933a3.327 3.327 0 00-.227.35 3.093 3.093 0 01-.173.275c-.377.458-.684 1.2-.98 1.918-.282.682-.664 1.615-.918 1.615-.052-.001-.243-.06-.546-.836l-.031-.08-.064-.046a7.227 7.227 0 01-.228-.166 5.761 5.761 0 00-.517-.361l-.072-.046a.935.935 0 00-.392-.16c-.072 0-.148-.005-.223-.008-.256-.014-.519-.028-.72.063-1.529.248-2.932.888-4.041 1.84-.859.666-1.583 1.472-2.277 2.332l.016-.102-.596.484-.004.049c-.105.147-.206.265-.326.408-.43.525-.8.963-1.207 1.39a78.13 78.13 0 01-3.074 2.966l-.53.445c-5.402 4.585-6.859 5.283-7.191 5.013-.03-.023-.034-.135-.017-.246.102-.415.998-2.392 1.66-3.831.497-1.084.93-2.018 1.063-2.37.448-1.253 1.748-3.492 2.075-4.006.054-.11.117-.215.178-.32.173-.296.371-.628.429-1.02.057-.17.57-.941.74-1.196l.114-.169c.229-.175.392-.434.46-.73.266-.574.155-1.339.094-1.645-.042-.208-.202-.9-.551-1.148-.324-.188-.52-.152-.846.17-.275.151-.433.402-.6.667l-.042.071-.332.39c-.352.416-.683.81-1.056 1.138a1.563 1.563 0 00-.046.053c-.384.578-.471.767-.543.92-.07.15-.116.248-.58.856-.528.63-2.796 2.615-5.014 4.355-3.283 2.577-4.47 3.004-4.65 2.864-.015-.05-.115-.573 1.76-3.275.18-.227.318-.441.442-.634.102-.156.191-.297.311-.446.181-.29.387-.561.585-.824.315-.421.615-.819.807-1.23l.289-.47c.336-.542.685-1.1.91-1.553.228-.293.399-.589.55-.848.127-.219.236-.408.358-.562l.038-.059c.297-.637.469-1.172.405-1.85.008-.695-.066-1.695-.797-2.406l-.021-.06a2.209 2.209 0 00-.11-.288 4.25 4.25 0 00-.389-.59l-.318-.27c-.431-.342-1.155-.914-1.285-1.253l-.027-.07-.054-.046c-.064-.055-.141-.125-.216-.193-.082-.071-.164-.146-.234-.203l-.132-.112-.136.106a3.4 3.4 0 00-.665.667c-.422.524-.8 1.087-1.13 1.684-.367.41-.72 1.238-1.059 2.037-.22.519-.426 1.009-.609 1.315l-.043.135c-.036.354-.307.938-.522 1.408a6.676 6.676 0 00-.33.795c-.213.825-.428 1.404-.634 1.966-.242.657-.47 1.274-.637 2.193-.054.88-.085.945-.187 1.16a4.86 4.86 0 00-.251.626c-.244.644.342 2.06 1.488 4.448.174.365.311.651.373.807.3.672 1.762 1.839 2.361 1.98l.052.012.051-.017c1.336-.447 2.391-1.067 3.092-1.477.133-.076.268-.156.384-.22-.233.455-.702 1.255-1.316 2.31l-.97 1.681c-.391.645-1.339 2.535-2.048 3.992-.254.447-.812.985-1.139 1.169-1.145.615-2.01.981-3.01 1.406l-.298.127c-1.768.904-3.407 1.49-4.898 1.745l-.29.077a12.45 12.45 0 00-1.171.355c-.577.165-1.01 1.028-.981 1.665.177 1.41.945 2.793 2.099 3.803 1.016.89 2.181 1.368 3.246 1.37.315 0 .622-.042.913-.127h.228c.687-.002 1.629.001 2.268-.404.931-.53 1.674-1.107 2.61-2.043.215-.338.482-.602.741-.859.207-.2.42-.41.58-.625.547-.535.903-1.05 1.175-1.697.312-.561.638-1.142 1.062-1.732l.071-.119c.568-.95 1.157-1.934 1.647-3.01.131-.456.402-.808.772-1.017.1-.05.168-.127.239-.208.035-.04.075-.086.097-.115.098-.07.809-.395 1.437-.681 1.511-.687 2.606-1.183 2.841-1.397l.052-.066c.163-.277.42-.515.584-.668.26-.184.615-.698.993-1.241.263-.375.534-.76.691-.904.482-.49.71-.748.969-1.044.187-.21.39-.44.703-.774.362-.321.663-.688.85-1.025l.135-.173c.194-.27.415-.518.657-.739.377-.377.74-.772 1.089-1.181.227-.396.404-.648.589-.84a4.85 4.85 0 01.185-.166c-.19.567-.32 1.186-.423 1.758-.057.141-.072.296-.086.434-.007.062-.014.127-.024.191l-.008.038.007.146c.008.159.014.274-.006.388a4.087 4.087 0 00.032 2.063c.22 1.136.688 1.98 1.416 2.577.485.458 1.069.766 1.633 1.035.483.209 1.056.144 1.432-.169.143-.12.272-.153.45-.2.037-.01.072-.02.108-.027.871-.149 1.526-.744 1.944-1.764.139-.343.339-.652.589-.91a4.23 4.23 0 00-.053.574 14.64 14.64 0 00-.083 1.525c-.019.18-.014.365-.012.546.005.233.01.457-.055.658-.069.325-.122.583.043.98l.042.074v.01c.002.025.004.056.008.083-.035.558.063 1.056.158 1.538.029.156.06.31.092.498.22.819.501 1.755 1.066 2.518.398.916.574 1.066 1.015 1.359.117.077.257.17.433.305.458.352.843.47 1.19.543l.084.018.074-.058c.079-.065.15-.142.209-.229l.02-.026c.321-.089.614-.215.899-.34.223-.095.452-.192.731-.289.097-.05.2-.1.305-.152.29-.138.59-.283.824-.484.428-.194.788-.508 1.141-.813.263-.249.517-.509.762-.78.359-.403.641-.79.897-1.237.08-.168.196-.311.34-.417.234-.2.443-.408.671-.634l.269-.266v-.003l.025-.007.101-.03.052-.115c.048-.11.092-.209.128-.298.201-.477.283-.67 1.196-1.508l.741-.622-.116-.24-.05-.1c.094-.092.171-.202.229-.325.357-.486.706-.728 1.111-1.008.286-.197.606-.416.956-.748a.43.43 0 00.367.012c.236-.106.331-.408.416-.675.066-.205.134-.419.236-.458l.059-.036c.088-.072.225-.185.336-.345-.234 1.62.212 2.95 1.339 3.956.188.164.368.322.539.534.476.533 1.126.795 1.949.782.08-.008.16-.013.238-.016.318-.016.646-.035.998-.306a.097.097 0 00.023.008l.066-.028c.23-.098.377-.147.607-.203.254-.123.536-.217.917-.302.19.475.513.842.778 1.112.042.044.11.12.139.177.264.47.641.759 1.004 1.038.107.083.218.167.325.258l.511.185c.144.008.283.03.419.055.227.034.463.078.696.05.226-.016.445.027.676.07.152.03.31.057.488.075.38.016.759-.059 1.109-.22.142-.076.297-.148.455-.224.256-.12.52-.245.813-.443.024-.026.098-.037.182-.05.329-.063.633-.234.871-.49.036-.049.124-.088.204-.125l.104-.05c.085-.045.165-.103.244-.153.003.837.2 2.107.51 3.794.075.411.134.732.153.904.12.752 1.216 2.4 1.745 2.752l.046.03.052.002c1.366.054 2.511-.157 3.269-.295.145-.027.292-.053.417-.073-.331.35-.969.948-1.803 1.74-.44.417-.88.835-1.318 1.256-.413.376-1.396 1.413-2.888 3.083-.346.336-1.002.652-1.354.708-1.207.171-2.097.208-3.128.253l-.357.015c-1.883.225-3.572.189-5.04-.107l-.303-.03c-.393-.05-.787-.078-1.182-.087-.582-.05-1.198.62-1.323 1.24-.166 1.414.236 3.02 1.09 4.41.974 1.587 2.361 2.602 3.636 2.705l.209.08c.423.163.946.366 1.453.445.274.042.543.05.787-.005 1.001-.17 1.839-.453 2.943-1.013.28-.246.596-.402.901-.554.24-.108.471-.238.691-.388.642-.316 1.1-.683 1.509-1.203.427-.425.87-.864 1.411-1.277l.064-.06c.77-.715 1.569-1.45 2.297-2.319.106-.185.247-.343.415-.463.167-.12.356-.2.555-.233.106-.009.187-.059.273-.112l.122-.074c.107-.03.855-.087 1.517-.134 1.584-.112 2.73-.191 3.002-.31l.064-.043c.221-.208.518-.343.709-.431.288-.084.747-.446 1.233-.83.336-.264.685-.537.868-.617.574-.298.85-.463 1.167-.652.223-.136.469-.281.84-.487.418-.176.792-.42 1.048-.677l.171-.118c.248-.187.514-.343.794-.468.346-.171.685-.358 1.017-.56.098-.058.197-.118.294-.178.309-.297.537-.475.757-.592.101-.05.256-.108.429-.171.576-.214.998-.384 1.14-.613.113-.124.56-.385 1.331-.772l.092-.047c.504-.326.469-.695.367-1.012-.051-.156-.06-.186.057-.347z" fill="#272525"/>
</svg>
