<svg xmlns="http://www.w3.org/2000/svg" fill="none" viewBox="0 0 165 81">
  <path fill-rule="evenodd" clip-rule="evenodd" d="M.81 72.539l-.51.254c.03.056.067.11.101.167.153-.149.287-.287.41-.421zm-.65-2.334l-.16.08c.044.039.073.082.109.125a1.58 1.58 0 01.052-.205zm.245 2.76c.39.616.954 1.145 1.044 1.911l-1.133.564c-.092.487.383.692.575 1.042-.284.14-.566.28-.47.454.066.548.54.698 1.149.533.145-2.553 2.87-4.79-1.165-4.504zm1.492-2.515l-1.492.74c.065.477.076.98.446 1.303.611-.676.896-1.246 1.046-2.043zm115.21-58.154c-.059-.106-.064-.175.278-.146-.1.049-.187.099-.278.146.051.102.147.239.054.365.878-.687 1.931-1.447 3.021-2.058.045-.258.082-.515.108-.765-2.719 1.482-5.494 2.86-7.253 4.912 1.606-.797 2.543-1.649 4.07-2.454zm2.819-3.612c.096-.05.184-.1.279-.148-.34-.03-.336.04-.279.148zM72.633 37.16c-1.63 1.002-2.8 2.348-3.999 3.683 2.953-2.094 6.125-3.984 8.22-5.868a148.87 148.87 0 01-4.22 2.185zm-10.29 9.726c2.298-.728 3.807-2.03 5.15-3.446-1.6.993-3.207 1.977-4.82 2.951-.11.165-.231.328-.33.495zm1.753-2.253c1.944-.954 3.258-2.364 4.538-3.79-1.67 1.184-3.253 2.436-4.538 3.79zm29.6-35.024c.998-1.135 1.65-1.74 2.059-2.015.06-.34.154-.765.296-1.31a7.763 7.763 0 00-.227.113 108.976 108.976 0 01-3.53 2.847c-.43.493-.826.992-1.109 1.497a55.06 55.06 0 002.512-1.132zm2.059-2.015c-.515 2.9 1.597-1.072 0 0zm-2.225 15l-.196.099c-.166.134-.338.266-.501.4.237-.168.46-.331.697-.498zM75.017 25.52a40.674 40.674 0 003.146-2.02c-2.172 1.313-4.365 2.632-5.98 4.09.282-.14.665-.107.948-.248.376-.627 1.032-1.397 1.886-1.822" fill="#ECEEF1"/>
  <path fill-rule="evenodd" clip-rule="evenodd" d="M69.554 31.33c3.015-3.044 6.89-5.19 10.193-7.715 2.549-1.929 6.148-2.61 8.029-5.092l-.288-.521-.186.314c-1.052.392-2.01.512-2.924.781.038-.04.083-.077.121-.118l-.237.154a5.303 5.303 0 00-1.789.916c-.259.234-.524.47-.794.702-3.376 2.068-6.886 4.153-9.494 6.838-1.697 1.506-2.918 3.22-4.616 4.728.566-.281 1.514-.532 1.985-.987zm8.175-13.071c-1.037.861-2.051 1.678-3.4 2.348 1.13-.788 2.264-1.568 3.4-2.348zM55.832 33.196c-2.583 2.222-5.71 4.205-8.614 5.46-2.27 1.128-8.217 5.406-5.93 6.929.718-5.18 18.715-9.387 14.544-12.39zm.99 9.103c-1.79 1.994-4.628 3.402-7.271 5.16-.851.421-1.318 1.537-2.452 2.1-1.324.878-1.982 1.649-3.022 2.384l1.045-.075c-2.082.814-2.642 2.419-4.819 3.054.097.176.005.664-.278.805-1.321.876-2.934 1.235-3.877 2.144-1.32.878-2.738 1.582-3.682 2.493-.285.14-.562.943-1.033 1.4-.654.412-1.323.8-1.987 1.193.057.03.11.063.16.095.568-.272 1.131-.574 1.638-.974 1.511-1.193 3.303-2.526 4.908-3.544 4.066-2.46 7.652-5.127 11.237-7.792.755-.595 1.416-1.365 2.17-1.96 2.169-1.962 5.386-3.34 6.414-5.397.188-.316.755-.598.849-1.086zM15.546 65.245c-2.112.668-4.455 2.34-6.784 3.839.01.05.027.1.05.145 2.169-.872 4.49-2.565 6.734-3.984zM8.82 68.371c.252-.216.505-.45.754-.691a3.007 3.007 0 01-.2-.055c-.275.135-.458.433-.554.746zm92.663-51.785a146.688 146.688 0 00-8.147 6.107c-5.917 3.019-11.428 6.283-15.799 10.262-3.769 3.643-11.902 7.238-14.906 12.269.505-.16.995-.358 1.466-.59a14.03 14.03 0 00-1.422 1.757c-7.16 4.323-14.307 8.347-21.962 12.146-1.135.563-1.698 1.509-2.832 2.072a373.206 373.206 0 00-3.35 1.788.175.175 0 00.103.094c-4.55 2.54-8.959 5.164-13.481 8.137-2.174 1.3-4.541 2.254-6.809 3.38-.85.423-1.234-.272-1.897-.164-2.749.258-4.834.407-7.577 1.327l-.289-.52a3.365 3.365 0 01-1.03.509c.143-2.555 2.868-4.792-1.168-4.503l-.002-.007c.14-.136.277-.277.41-.422l.053-.027-.014-.017c.612-.677.895-1.245 1.045-2.042l-1.492.74c-.04-.29-.114-.564-.299-.781.017-.068.031-.135.055-.205l.406-.202a2.143 2.143 0 00-.06-.481c.888-1.392 2.724-2.798 1.932-3.323-.508-.221-1.282.572-2.24 1.33a1.386 1.386 0 00-.31-.065c1.322-.877-.673-1.215.082-1.81 1.135-.564 2.17-1.302 3.304-1.864 4.619-2.294 8.416-4.398 12.664-7.171.188-.122.377-.238.565-.357a42.986 42.986 0 016.364-3.31c-.071.187-.152.37-.242.55 1.794-.75 3.552-1.572 5.14-2.697 3.87-2.808 7.74-5.614 12.182-8.04 4.678-2.5 9.055-5.136 13.56-8.113-1.759 1.365-3.535 2.694-5.492 3.819-.918.432-1.828.873-2.687 1.344a24.311 24.311 0 002.688-1.344c3.533-1.666 7.24-3.24 9.032-6.206.372-.001.467.173.75.033 1.987-.986 4.067-1.797 5.384-3.337-.096-.174.756-.598.28-.804 1.607-1.019 3.594-2.003 5.102-3.195.675-.48 1.224-1.177 1.735-1.95 5.575-3.953 11.076-7.88 17.15-12.017 1.537-.976 3.414-1.916 5.064-2.735-2.107 1.785-4.344 3.507-6.644 5.2-2.535 1.094-4.893 2.268-6.344 4.123a37.1 37.1 0 01-1.095 1.14 309.903 309.903 0 007.439-5.263c1.495-.65 3.051-1.269 4.516-1.987-.022.027-.043.054-.069.08a146.43 146.43 0 01-3.117 2.352c-2.254.975-4.366 2.01-5.827 3.533-.181.19-.359.387-.517.592-.358.39-.725.768-1.095 1.138a378.81 378.81 0 004.625-3.234 202.06 202.06 0 002.814-2.03c.663-.284 1.337-.568 2.009-.854-.046.077-.095.156-.13.235-.476.455-.936 3.284.202 3.383 4.342-2.21 10.015-6.078 10.11-5.904.666.555-6.313 5.181-5.934 5.216.462-.13.918-.274 1.368-.424-.32.338-.629.677-.895 1.02-.755.593-1.987.985-2.364 1.614-1.408 2.028-3.87 2.806-5.754 4.625-1.132 1.228-2.45 2.765-3.765 4.306.19.346-.758.597-.281.803-1.601.795-3.453 1.715-3.579 3.07-.034.029-.067.054-.1.083-.114.056-.242.195-.37.358-2.761 1.144-4.088 3.03-6.133 4.897-.782.501-1.594.979-2.463 1.41.567-.281 1.513-.53 1.986-.987.163-.14.322-.281.477-.423 2.026-1.299 3.82-2.78 5.658-4.171.111-.186.288-.484.475-.726.153-.064.307-.126.465-.184a2.134 2.134 0 01.005-.258c1.684-1.47 3.799-2.749 5.185-4.088 2.82-2.156 6.337-3.53 9.6-5.024a152.44 152.44 0 00-4.198 3.283c1.695-1.2 3.371-2.422 5.027-3.67.279-.13.55-.26.82-.396l1.703-.845c-.572.187-1.13.39-1.68.597a100.24 100.24 0 002.781-2.195c5.238-3.635 10.874-6.97 16.78-9.56a7.29 7.29 0 01-.037.822c-2.719 1.48-5.493 2.858-7.25 4.912 1.6-.794 2.539-1.65 4.065-2.453.054.101.149.237.054.365.88-.689 1.931-1.449 3.023-2.06-.11.628-.268 1.273-.423 1.919-.377.628-1.227 1.052-1.983 1.647-3.515 2.13-7.034 3.762-10.427 5.982-3.264 1.537-6.525 3.073-9.674 4.675 2.873-2.05 5.488-3.984 7.952-6.009z" fill="#ECEEF1"/>
  <path fill-rule="evenodd" clip-rule="evenodd" d="M96.023 18.778c1.109-.82 2.232-1.634 3.38-2.432.842-.69 1.67-1.397 2.483-2.118 4.04-3.19 9.533-5.517 14.193-8.364a3.086 3.086 0 00-.884-1.562c-5.623 2.07-10.419 5.638-15.887 7.984-.032.038-.065.075-.095.115-1.694 2.17-5.573 3.654-7.93 5.929-2.26 2.45-4.905 4.206-7.26 6.482 4.098-2.034 7.787-4.342 12-6.034zM67.493 43.44c1.061-.66 2.12-1.321 3.176-1.987a107.11 107.11 0 007.893-5.904 158.755 158.755 0 01-6.217 3.273c-2.014 1.235-3.325 3-4.852 4.618z" fill="#ECEEF1"/>
  <path fill-rule="evenodd" clip-rule="evenodd" d="M80.578 33.88c-.678.57-1.346 1.123-2.017 1.67 3.02-1.67 5.972-3.403 8.91-5.148 4.645-3.208 9.343-6.324 13.872-9.738a36.259 36.259 0 011.575-1.08c-9.48 4.456-18.93 8.896-25.671 15.034-.12.119-.262.238-.393.357 3.72-1.998 7.323-4.108 10.906-6.236-2.42 1.67-4.825 3.363-7.182 5.14zm14.37-14.308c.28-.127.555-.256.83-.387.286-.214.563-.428.842-.644-.2.08-.4.157-.598.237-.358.266-.72.527-1.073.794zm-10.57-.475l-.117.036c-.853.55-1.714 1.089-2.582 1.618a45.684 45.684 0 01-3.515 2.747c2.345-1.416 4.66-2.825 6.214-4.401zm-10.163-.259c-.284.14-.849.42-1.133.563l-.344.569c.27-.123.544-.244.82-.363l.657-.769zm-15.19 11.118c4.654-3.172 8.974-6.22 13.25-9.253.159-.238.313-.484.463-.733-3.194 1.45-6.188 3.22-8.534 5.607-.47.455-1.034 1.398-1.6 1.68-2.594 1.498-4.847 3.318-7.12 5.086a214.93 214.93 0 003.444-2.322c.034-.02.065-.043.097-.065zm105.2-24.842l.575-.289c-.031-.055-.07-.11-.105-.166a11.21 11.21 0 00-.47.455zm.595 2.362l.18-.091c-.047-.037-.075-.081-.113-.123-.019.07-.037.141-.067.214zm-.128-2.822c-.397-.613-.989-1.128-1.049-1.91l1.273-.635c.124-.507-.385-.693-.578-1.04.317-.16.636-.319.539-.49-.046-.562-.557-.69-1.234-.49-.288 2.628-3.394 5.064 1.049 4.565zm-1.764 2.658l1.674-.837c-.049-.484-.033-1-.425-1.312-.703.724-1.046 1.323-1.249 2.15zM33.574 72.89c.058.106.061.176-.313.165.111-.056.21-.111.313-.165-.052-.101-.15-.236-.041-.372-1 .751-2.193 1.585-3.42 2.268-.062.262-.114.525-.156.79 3.056-1.659 6.171-3.216 8.206-5.413-1.804.901-2.874 1.824-4.589 2.727zm-3.278 3.853c-.107.054-.206.11-.313.165.371.013.37-.057.313-.165zm53.334-31.65c1.84-1.11 3.193-2.552 4.575-3.985-3.347 2.302-6.922 4.403-9.316 6.446a196.786 196.786 0 014.741-2.46zm11.786-10.509c-2.56.866-4.28 2.279-5.826 3.801a600.15 600.15 0 015.438-3.276c.126-.174.27-.347.388-.525zm-2.038 2.403c-2.183 1.08-3.695 2.593-5.173 4.121 1.893-1.298 3.695-2.665 5.173-4.121zM59.12 74.457c-1.153 1.216-1.9 1.87-2.361 2.174-.084.35-.209.793-.393 1.36l.255-.126a131.045 131.045 0 014.017-3.105c.497-.528.957-1.06 1.295-1.595a69.69 69.69 0 00-2.813 1.291zm-2.361 2.174c.712-3.006-1.807 1.18 0 0zm3.205-15.517l.22-.11.57-.437c-.27.186-.524.365-.79.547zm20.457-3.945a51.508 51.508 0 00-3.555 2.236c2.45-1.46 4.924-2.925 6.768-4.506-.317.158-.734.145-1.051.303-.445.665-1.205 1.49-2.162 1.967" fill="#ECEEF1"/>
  <path fill-rule="evenodd" clip-rule="evenodd" d="M86.71 50.924c-3.461 3.28-7.82 5.68-11.573 8.44-2.896 2.11-6.878 2.994-9.068 5.638l.29.522.22-.333c1.175-.457 2.23-.627 3.247-.951-.044.043-.095.084-.139.127l.267-.17a6.7 6.7 0 002.01-1.03c.296-.256.6-.51.907-.763 3.809-2.295 7.766-4.615 10.764-7.505 1.939-1.631 3.366-3.455 5.306-5.089-.636.318-1.689.623-2.23 1.114zm-9.632 13.839c1.182-.938 2.335-1.83 3.85-2.586-1.28.867-2.564 1.726-3.85 2.586zM101.86 48.31c2.947-2.413 6.479-4.607 9.728-6.045 2.55-1.274 9.29-5.97 6.859-7.414-1.053 5.353-21.008 10.59-16.587 13.46zm-.62-9.297c2.063-2.138 5.248-3.729 8.238-5.666.955-.478 1.523-1.648 2.797-2.284 1.495-.968 2.257-1.79 3.437-2.602l-1.15.132c2.326-.943 3.02-2.618 5.441-3.383-.096-.175.027-.68.347-.839 1.494-.968 3.281-1.418 4.361-2.4 1.494-.969 3.086-1.762 4.167-2.745.32-.16.665-.998 1.206-1.49.738-.458 1.491-.89 2.241-1.326a2.51 2.51 0 01-.172-.091c-.636.31-1.27.647-1.846 1.084-1.719 1.301-3.752 2.762-5.565 3.89-4.585 2.73-8.656 5.652-12.725 8.571-.859.648-1.622 1.474-2.48 2.123-2.479 2.126-6.079 3.702-7.313 5.87-.221.332-.858.65-.984 1.156zm46.448-25.662c2.352-.794 5.008-2.628 7.639-4.287a.484.484 0 00-.049-.147c-2.421 1.007-5.055 2.864-7.59 4.434zm7.539-3.553c-.285.236-.576.49-.863.75.076.012.148.026.219.046.31-.153.525-.469.644-.796zM50.934 67.69a183.784 183.784 0 009.25-6.686c6.644-3.4 12.855-7.033 17.853-11.341 4.322-3.932 13.427-8.037 16.978-13.355-.562.19-1.11.417-1.638.68a16.835 16.835 0 001.65-1.878c8.074-4.803 16.121-9.298 24.712-13.589 1.273-.635 1.938-1.635 3.212-2.27a438.24 438.24 0 003.768-2.007.176.176 0 00-.11-.092c5.123-2.84 10.091-5.759 15.205-9.042 2.45-1.445 5.096-2.546 7.639-3.816.957-.478 1.342.217 2.076.072 3.028-.405 5.323-.666 8.38-1.749l.289.52a4.225 4.225 0 011.158-.575c-.288 2.629-3.391 5.066 1.05 4.565l.003.005c-.161.147-.318.298-.469.454l-.062.03.014.018c-.705.725-1.045 1.325-1.25 2.15l1.673-.835c.03.294.098.573.291.787-.024.07-.043.14-.072.21l-.456.23a1.95 1.95 0 00.042.49c-1.045 1.475-3.132 3.013-2.289 3.513.546.2 1.435-.655 2.523-1.482.109.03.227.048.34.051-1.495.97.674 1.215-.184 1.863-1.273.637-2.447 1.447-3.721 2.082-5.182 2.59-9.455 4.945-14.259 8.008-.211.135-.423.264-.636.396a53.902 53.902 0 01-7.15 3.722c.088-.197.186-.388.293-.576-2.005.86-3.975 1.795-5.777 3.031-4.388 3.08-8.776 6.157-13.771 8.874-5.26 2.806-10.196 5.736-15.291 9.023 1.999-1.493 4.015-2.95 6.22-4.202a62.77 62.77 0 003.016-1.518 30.306 30.306 0 00-3.016 1.518c-3.962 1.89-8.108 3.694-10.227 6.831-.407.02-.502-.153-.821.005-2.228 1.114-4.553 2.053-6.076 3.7.096.174-.86.651-.35.839-1.813 1.127-4.043 2.242-5.758 3.542-.765.525-1.404 1.27-2.003 2.09-6.317 4.342-12.552 8.654-19.426 13.212-1.737 1.08-3.844 2.14-5.695 3.066 2.403-1.94 4.944-3.822 7.555-5.677 2.835-1.254 5.483-2.579 7.168-4.558.416-.42.834-.827 1.26-1.226a393.652 393.652 0 00-8.428 5.784c-1.675.742-3.413 1.458-5.057 2.27.026-.029.05-.057.078-.086a194.883 194.883 0 013.54-2.574c2.523-1.116 4.893-2.287 6.574-3.925a8.88 8.88 0 00.597-.633 42.65 42.65 0 011.26-1.225 492.071 492.071 0 00-5.24 3.555c-1.07.74-2.137 1.48-3.191 2.228-.74.327-1.495.652-2.245.979.052-.081.11-.163.154-.247.544-.491 1.193-3.419-.05-3.463-4.876 2.49-11.297 6.75-11.392 6.577-.702-.536 7.19-5.64 6.776-5.658-.514.157-1.022.328-1.523.506.369-.364.725-.728 1.036-1.093.857-.65 2.228-1.113 2.673-1.779 1.649-2.153 4.388-3.078 6.55-5.042 1.304-1.317 2.826-2.963 4.349-4.612-.192-.346.861-.65.348-.84 1.797-.896 3.875-1.935 4.083-3.332l.115-.093c.127-.063.274-.21.423-.386 3.088-1.315 4.638-3.32 6.979-5.34a32.897 32.897 0 012.773-1.573c-.636.318-1.687.623-2.23 1.114a28.39 28.39 0 00-.543.459c-2.289 1.436-4.333 3.048-6.42 4.572-.131.195-.341.512-.559.768-.17.076-.344.146-.519.213 0 .09-.008.179-.02.266-1.92 1.595-4.307 3.015-5.895 4.462C65.838 61 61.91 62.59 58.252 64.29a189.467 189.467 0 004.773-3.584 262.275 262.275 0 00-5.701 4.022c-.312.15-.615.297-.92.45l-1.913.955a48.22 48.22 0 001.876-.699 131.936 131.936 0 00-3.163 2.395c-5.932 4-12.285 7.712-18.895 10.67a6.96 6.96 0 01.083-.844c3.058-1.66 6.17-3.216 8.203-5.413-1.797.897-2.871 1.823-4.586 2.724-.053-.1-.15-.235-.04-.37-1 .75-2.193 1.584-3.422 2.268.154-.65.359-1.321.562-1.991.446-.666 1.4-1.143 2.26-1.794 3.965-2.363 7.907-4.22 11.743-6.673 3.66-1.743 7.317-3.486 10.853-5.292-3.258 2.251-6.225 4.37-9.032 6.575z" fill="#ECEEF1"/>
  <path fill-rule="evenodd" clip-rule="evenodd" d="M57.033 65.16a168.16 168.16 0 01-3.83 2.67c-.958.75-1.903 1.518-2.833 2.301-4.594 3.48-10.738 6.15-15.995 9.31.121.59.392 1.12.888 1.559 6.275-2.414 11.719-6.319 17.837-9.006.036-.042.075-.08.109-.124 1.97-2.313 6.3-4.035 9.001-6.491 2.606-2.631 5.596-4.569 8.296-7.025-4.6 2.297-8.765 4.855-13.473 6.806zM89.59 38.385a686.383 686.383 0 00-3.585 2.2 133.963 133.963 0 00-8.962 6.467 201.326 201.326 0 016.988-3.678c2.272-1.37 3.799-3.252 5.559-4.989zM74.747 48.87c.772-.622 1.534-1.223 2.296-1.817a413.042 413.042 0 00-10.036 5.74C61.75 56.32 56.435 59.76 51.293 63.494c-.59.413-1.185.81-1.783 1.189 10.625-5.058 21.22-10.098 28.93-16.743.137-.128.299-.258.448-.387-4.182 2.24-8.244 4.59-12.28 6.957 2.737-1.839 5.462-3.699 8.14-5.642" fill="#ECEEF1"/>
  <path fill-rule="evenodd" clip-rule="evenodd" d="M58.253 64.29c-.314.146-.622.29-.929.438-.324.236-.641.47-.957.706l.667-.274c.408-.29.817-.578 1.219-.87zm11.573-.05l.129-.042a157 157 0 012.916-1.794 57.05 57.05 0 013.996-3c-2.645 1.573-5.257 3.139-7.04 4.835zm11.135-.25l1.274-.637c.135-.203.268-.403.404-.603-.302.14-.61.28-.917.416l-.761.824zM98.19 51.8c-5.266 3.493-10.16 6.844-15.008 10.174a30.11 30.11 0 00-.544.776c3.577-1.651 6.955-3.62 9.648-6.191.539-.49 1.206-1.49 1.841-1.806 2.922-1.67 5.487-3.654 8.071-5.584a256.093 256.093 0 00-3.896 2.559c-.038.022-.074.048-.112.071" fill="#ECEEF1"/>
  <path fill-rule="evenodd" clip-rule="evenodd" d="M33.986 31.72v5.842h3.866c.948 0 1.695-.264 2.242-.795.546-.531.82-1.227.82-2.092 0-.864-.279-1.572-.838-2.126-.56-.554-1.302-.829-2.224-.829h-3.866zm0 10.335v9.436H27.75V27.227h10.1c2.965 0 5.275.725 6.929 2.178 1.652 1.45 2.479 3.203 2.479 5.253 0 1.406-.45 2.777-1.349 4.114-.9 1.336-2.37 2.28-4.412 2.832l6.272 9.887h-7.294l-5.761-9.436h-.73zm33.256-14.897v4.492H57.98v5.22h8.167v4.493H57.98v5.635h9.262v4.493H51.744V27.158h15.498zm3.245 4.562v-4.493h20.2v4.493h-7.001v19.771h-6.234v-19.77h-6.965zm29.79 0v5.842h3.866c.947 0 1.694-.264 2.242-.795.546-.531.82-1.227.82-2.092 0-.864-.28-1.572-.837-2.126-.561-.554-1.302-.829-2.225-.829h-3.866zm0 10.335v9.436h-6.235V27.227h10.101c2.965 0 5.274.725 6.928 2.178 1.652 1.45 2.48 3.203 2.48 5.253 0 1.406-.451 2.777-1.35 4.114-.9 1.336-2.371 2.28-4.413 2.832l6.272 9.887h-7.292l-5.762-9.436h-.729zm34.294 2.315c1.227-1.267 1.842-2.96 1.842-5.08s-.615-3.814-1.842-5.081c-1.227-1.267-2.87-1.902-4.923-1.902-2.055 0-3.695.635-4.922 1.902-1.228 1.267-1.841 2.961-1.841 5.081 0 2.12.613 3.813 1.841 5.08 1.227 1.269 2.867 1.9 4.922 1.9 2.053 0 3.696-.631 4.923-1.9zm-14.22 3.836c-2.542-2.35-3.812-5.321-3.812-8.916 0-3.594 1.27-6.562 3.812-8.9 2.538-2.34 5.652-3.51 9.334-3.51 3.682 0 6.782 1.17 9.298 3.51 2.517 2.338 3.774 5.306 3.774 8.9 0 3.595-1.264 6.566-3.791 8.916-2.53 2.35-5.629 3.527-9.299 3.527-3.671 0-6.778-1.176-9.316-3.527zM65.404 11.995V9.468h11.36v2.527h-3.938v11.12H69.32v-11.12h-3.916zm22.31-2.527h3.507v13.646h-3.507v-5.656h-5.556v5.656H78.65V9.468h3.508v5.462h5.556V9.468zm15.094-.04v2.529h-5.21v2.935h4.594v2.527h-4.593v3.168h5.209v2.527h-8.717V9.43h8.717z" fill="#272525"/>
  <path fill-rule="evenodd" clip-rule="evenodd" d="M46.451 63.808a.896.896 0 00-.576.178c-.15.118-.226.288-.226.509 0 .222.072.4.209.536.14.135.321.24.543.31.223.075.472.144.747.21.273.066.545.144.816.239.27.093.518.21.74.347.223.14.405.335.543.588.14.253.209.557.209.91 0 .618-.266 1.144-.796 1.586-.53.44-1.227.66-2.095.66-.866 0-1.563-.198-2.093-.593-.531-.396-.795-.957-.795-1.685h1.996c.05.583.365.874.942.874.27 0 .482-.068.636-.204a.668.668 0 00.175-.233.636.636 0 00.056-.28.66.66 0 00-.05-.276.691.691 0 00-.159-.234 1.512 1.512 0 00-.542-.312 9.067 9.067 0 00-.746-.213 7.648 7.648 0 01-.818-.244 4.123 4.123 0 01-.74-.349 1.498 1.498 0 01-.542-.582 1.829 1.829 0 01-.208-.898c0-.68.265-1.223.8-1.633.533-.409 1.215-.613 2.045-.613.83 0 1.501.178 2.013.536.51.356.778.92.8 1.688h-2.04c-.03-.263-.119-.466-.269-.608a.813.813 0 00-.575-.214zm10.978.053v-1.35h6.074v1.35h-2.105v5.946h-1.875V63.86h-2.094zm14.18 3.006V62.51h1.874v4.356c0 .435.113.772.34 1.006.228.236.56.355.998.355.44 0 .775-.119 1.01-.355.234-.234.35-.57.35-1.006V62.51h1.876v4.356c0 .643-.16 1.2-.477 1.667-.29.444-.708.8-1.206 1.024a3.862 3.862 0 01-1.585.323c-.892 0-1.646-.263-2.26-.791-.614-.527-.92-1.267-.92-2.223zm16.944 1.59h.832c.716 0 1.281-.208 1.69-.624.409-.416.614-.974.614-1.675 0-.7-.205-1.257-.615-1.673-.408-.416-.972-.624-1.689-.624h-.833v4.596zm.832-5.946c1.23 0 2.238.336 3.027 1.013.79.676 1.185 1.553 1.185 2.63 0 1.076-.395 1.955-1.185 2.635-.789.68-1.798 1.018-3.027 1.018h-2.708V62.51h2.708zm12.414 7.296h1.877V62.51h-1.877v7.296zm15.514-2.141c.369-.382.554-.891.554-1.529 0-.637-.185-1.146-.554-1.527-.369-.382-.863-.572-1.481-.572-.617 0-1.111.19-1.48.572-.369.38-.554.89-.554 1.527 0 .638.185 1.147.554 1.529.369.382.863.572 1.48.572.618 0 1.112-.19 1.481-.572zm-4.278 1.154c-.764-.707-1.146-1.601-1.146-2.683 0-1.08.382-1.973 1.146-2.676.764-.702 1.7-1.055 2.808-1.055 1.108 0 2.04.353 2.796 1.055.758.703 1.136 1.596 1.136 2.676 0 1.082-.381 1.976-1.141 2.683-.76.707-1.693 1.06-2.796 1.06-1.104 0-2.039-.353-2.803-1.06z" fill="#000"/>
</svg>
