<svg xmlns="http://www.w3.org/2000/svg" fill="none" viewBox="0 0 153 87">
  <path fill-rule="evenodd" clip-rule="evenodd" d="M116.578 70.835c-3.206.013-6.406 1.755-8.825-1.694-.804.003.778-6.92-.038-10.38l-3.226.011c-.834-5.18.757-10.371-.079-15.559-.024-.145-.056-.26-.083-.392l12.251-.19c-4.098 0-8.196-.004-12.292-.007-.987-4.293-3.979-1.267-4.779-4.578-2.47-3.447 1.59-5.19 4.036-5.2-.833-3.456 1.63-.006 1.614-3.465-.035-6.916-.059-13.836-3.379-19.008-.834-1.728-.044-6.917-.064-10.373-9.898.04-20.685.064-30.415 7.043-8.046 5.301-18.043-1.998-25.993 3.824-1.202.882-2.858-.393-4.393-.805-.788-.205-1.418-.193-2.089.412-.663.606-1.262 1.806-1.665 3.977l2.567-.047c-2.257 5.233-5.326.072-8.807 2.029.271 3.453.383 5.174-.572 6.983 2.247-.186 5.216-2.017 7.026-.318l.128 5.18c-.85.886-1.978.482-3.192.1-1.205-.384-2.52-.74-3.486.201l.635 6.897c.152 1.721-.75 1.791-1.677 1.892a70.265 70.265 0 013.629-.291l.41 6.369c-1.858.102-3.694.264-5.48.555l5.51-.085.005.063c.107 1.731-.671 1.773-1.446 1.834.285 3.446-.018 6.945.792 8.612a63.406 63.406 0 012.008-.122c-1.355.93-2.061 3.596-2.184 6.653-.136 3.058.253 6.502.62 9.073.072-1.752.709 3.403.795 1.653-.107 1.316-.057 2.725.028 4.133.078 1.407.233 2.81.422 4.093.123.638.144 1.264.213 1.842.078.577.203 1.106.383 1.57l.43 2.124c-.2.652 1.647.983 5.412 1.244 3.67.245 7.16.342 10.755.304 7.142-.073 14.299-.66 21.453-1.516 14.128-1.57 28.259-4.207 42.246-5.99 1.598-1.738.802-5.19.796-8.65" fill="#ECEEF1"/>
  <path fill-rule="evenodd" clip-rule="evenodd" d="M17.848 42.27c.254.157.509.313.763.392 1.947.94 3.472 2.193 5.082 3.445 2.285 1.88 3.894 4.306 4.74 7.282.51 2.037.17 4.307-1.268 6.656-.425.784-.932 1.645-1.61 2.35-.253.312-.677.782-1.101 1.096-1.61 1.41-3.388 2.349-5.335 3.054-.932.469-1.948.549-2.88.469-.762 0-1.438.08-2.201.47-.678.314-1.27.47-2.033.706-1.777.39-3.303.469-4.827.234-2.286-.314-4.487-.94-5.928-2.35-1.27-1.252-1.61-2.897-.846-5.088A16.951 16.951 0 012.86 56.99c.931-1.253 2.032-2.506 3.387-3.602.254-.157.423-.469.593-.705.677-1.175 1.016-1.41 2.286-1.252.508-.158.847-.862 1.524-.627-.338.157-.593.314-1.1.55.423.078.678.154.847.154 0 .392 0 .706.084 1.098.084.235 0 .469-.253.782-.509.627-.933 1.253-1.526 1.958-.846 1.018-1.438 1.957-1.608 3.133-.17.704-.17 1.331-.254 2.114-.085.548.168.94.761 1.096a4.77 4.77 0 002.372.156c1.523-.235 3.132-.548 4.658-1.174 1.525-.627 3.134-1.176 4.657-1.88 1.102-.469 2.287-1.096 3.302-1.957.764-.548 1.016-1.174.764-1.644-.594-1.802-1.357-3.367-2.964-4.542-2.625-1.959-5.676-3.682-8.723-5.325a37.676 37.676 0 01-5.166-3.368c-1.864-1.33-3.218-3.052-4.234-4.854-1.948-2.976-.17-7.047 2.54-10.101 2.457-2.82 5.758-4.698 9.146-6.421 1.017-.392 2.033-.627 2.964-1.018 5.166-1.723 9.992-1.88 14.65-1.567 1.44.156 2.796.393 4.236.548 1.522.157 2.964.47 4.064 1.255.422.312.677.625.422 1.25-.083.158-.083.393-.083.55-.085.392-.085.782-.254 1.174-.678 1.331-1.185 2.662-1.27 3.993-.085.549-.509 1.331-.933 1.959-.337.625-.846 1.096-1.185 1.644a3.35 3.35 0 01-1.355 1.253c-.932.392-1.694.782-2.625 1.018-.508.235-1.017.235-1.355 0-1.271-.47-2.626-.706-3.98-.861-2.71-.314-5.42-.706-8.384-.627-.848.078-1.778.156-2.626.392-1.016.156-1.947.39-2.88.547-6.095 1.41-2.54 5.481.51 7.518 1.354.782 2.709 1.723 3.979 2.662zm30.063 9.004c-.085-.077-.34-.077-.424.158-.085 0-.085.077-.085.156-.339.784-.761 1.254-1.524 1.096-.422.392-.593.784-.93 1.096-.34.158-.764.471-.849 1.019 0 .157-.084.235-.17.392-.423.547-.845.939-1.184 1.41-.34.783-.931 1.252-1.525 1.722-.254.312-.678.549-.93 1.096 0 .077-.17.312-.425.312-.423.08-.846.392-1.27.706-.932.47-1.863.86-2.879.94-.932 0-1.778-.08-2.625-.47-1.354-.705-1.863-2.035-2.033-3.758 0-.392 0-.784.17-1.176.168-2.427.677-4.854 1.355-7.283.422-1.33.93-2.505 1.44-3.68 1.1-2.113 2.032-4.383 3.133-6.498 0-.235.085-.314.17-.549.507-1.8 1.522-3.523 2.54-5.168.339-.47.508-.94.846-1.566.423-.078.847-.078 1.185.235.932.549 1.863 1.175 2.88 1.723.17.079.424.234.424.39.592 1.175 1.355 2.271 1.693 3.604.17.782.254 1.488.424 2.27.17.862.084 1.801-.34 2.584-.337.627-.507 1.33-.846 1.958-.084.392-.254.782-.339 1.174-.508 1.567-1.015 3.131-1.778 4.7 0 0-.085.078-.085.155 0 0 0 .08-.17.236a5.57 5.57 0 01-.592 1.8c.17-.078.338-.078.424-.157a94.459 94.459 0 002.625-2.819c1.523-1.566 2.88-3.13 4.319-4.697.593-.627 1.1-1.097 1.609-1.801 1.61-2.037 3.388-3.839 5.166-5.639.338-.313.677-.548.931-.627.762-.312 1.525-.39 2.117-.312.339.157.593.234.762.39.677.628 1.27 1.333 1.949 1.88.424.314.676.783.93 1.41.17.549.34 1.018.424 1.645.17.784.17 1.566-.084 2.427-.594 1.8-1.102 3.446-1.864 5.09-.17.705-.508 1.41-.678 2.27.218-.068.42-.174.593-.313 1.694-.86 3.219-2.115 4.658-3.524 1.355-1.174 2.795-2.27 4.32-3.053.253-.078.423-.235.677-.47.507-.392.931-.312 1.27 0 .424.312.594.86 1.185 1.097.424.156.677.548 1.016.938a7.694 7.694 0 000 1.958c0 .547-.168 1.096-.422 1.723-.509.235-.17.861-.509 1.253a26.72 26.72 0 01-.424 2.74 12.37 12.37 0 000 2.506c0 .549.17.784.594.94 1.27.236 5.673-2.661 6.521-3.68 1.524-1.565 2.793-3.367 3.98-5.247.084-.392.254-.782.508-1.019.168.237.255.237.168.314-.254 1.176.171.47 0 1.801 0-.313-.422 1.331-.676 1.176-.17 0-.17.234-.34.39-.507.861-1.015 1.645-1.439 2.584 0 .314-.254.548-.339.706-.761.469-1.27 1.017-1.862 1.565 0 .235-.254.313-.424.392-.424.862-3.98 3.21-4.912 3.21-.424 0-2.455-.156-2.879-.47-.846-.704-2.203-1.564-2.71-2.662-.424-.94-.424-2.113-.084-3.29.423-1.956.93-3.836 1.694-5.716.084-.233.169-.547.169-.782.085-.157 0-.234 0-.469-.509.077-.848.626-1.272.704-.422.157-.846.314-1.185.547-.083.784-.083.784-.592 1.49-.339.312-.508.705-.847 1.096-.423-.235-.847 0-1.27.313a43.394 43.394 0 01-2.033 1.566c-.17.156-.424.236-.592.548-.763.862-1.694 1.488-2.71 2.193-.085.157-.254.157-.424.392-.508.938-1.524 1.408-2.287 2.192a8.201 8.201 0 01-.846.94c-1.355 1.017-2.88 1.409-4.319 1.252-.678-.077-1.27-.469-1.779-1.018-.593-.547-.846-1.252-.763-2.35 0-.86.17-1.643.51-2.505 1.354-3.914 3.387-7.36 5.842-10.65.594-1.017 1.355-1.958 1.948-3.053.34-.314.592-.704.424-1.175-.254-.235-.593-.235-.932.079-.168.235-.423.392-.762.627-.847.782-1.694 1.564-2.54 2.192-.508.548-.932 1.019-1.271 1.723-.423.939-.931 1.723-1.61 2.427-.76.705-1.439 1.33-1.946 2.115-.509.625-.848 1.33-1.272 1.957-.17.391-.507.94-.761 1.33-.17.236-.424.55-.593.784-.084 0-.253-.158-.338-.158" fill="#000"/>
  <path fill-rule="evenodd" clip-rule="evenodd" d="M93.385 32.325c-.17.235-.338.392-.423.704 0 .08 0 .237-.17.392-.254.235-.508.549-.846.94-.17.236-.847.55-1.271.626-.17-.077-.424.079-.592.237-.509.312-.846.234-1.187.077-.254-.157-.422-.157-.676-.157-.34 0-.594 0-.933-.078.086-.079.17-.234.254-.314 0-.234.17-.469.255-.782.17-.392.339-.627.593-1.018 0-.157.253-.313.253-.392 0-.47.424-.86.678-1.331l.509-.706c.17-.155.337-.312.508-.312.168-.08.338-.08.423 0 0 .157.17.157.339.079.17-.079.253-.158.339-.079.339.157.761.236 1.1.313.594.235 1.018.627 1.355 1.175-.254.234-.337.47-.508.626zm-7.79 8.535l.083-.078c.254-.313.424-.392.678-.547.931-.158 3.049-1.567 3.895-1.098.254.314 1.1.706 1.441 1.02.338.39.423.939.168 1.721-.508 1.019-1.1 1.958-1.777 3.21-.17.47-.339.863-.424 1.175-.339.704-.678 1.645-1.1 2.35-.34.94 1.185-2.036 1.015-1.252 0 .233-.17.469-.254.625-.678 1.567-.678 1.253-.761 2.663 0 .783-.34 4.777-.255 5.48.085.55.424.862.677 1.175.34.157.763.47 1.27.627.424.314.848.157 1.355.077 7.03-2.347 4.49-3.21 8.554-7.203.761-1.019 1.694-1.958 2.118-3.21 0-.079 0-.079.253-.47.423.783-.508 1.879.678 2.114-1.779 2.976-3.049 7.283-5.928 8.849-.848 1.018-6.606 5.716-10.331 4.385-1.186.392-2.288-.705-3.558-1.175-.846-.313-1.694-.94-2.455-1.722-.424-1.018-.848-2.115-.848-3.133-.17-.47-.17-1.017-.17-1.41.255-.938.085-2.74.425-3.365.084-.394.254-.784.254-1.255.17-.078 0-.468.593-.547.084 0 .168-.313.253-.392.424-.547.509-1.017.932-1.566 0 0-1.778 1.645-.762.078.678-1.566 2.202-3.289 2.71-4.385 0-.155.169-.39.169-.39.254-.47.508-.784.339-1.333-.085-.314 0-.626.254-1.096.17.078.255.157.509.078z" fill="#000"/>
  <path fill-rule="evenodd" clip-rule="evenodd" d="M112.438 37.102c2.709-3.993 3.133-4.62 5.59-8.927.931-1.645 1.692-3.288 2.625-4.933.422-1.174.677-2.349.846-3.524.17-.39.17-.626-.254-.47-.424.08-.677.235-.931.391-1.102.392-2.118 1.175-2.879 2.27-.594.628-1.016 1.333-1.694 1.959-.763.862-1.185 1.723-1.525 2.742-.423.782-.847 1.721-1.27 2.505-.593 1.644-1.441 3.288-2.287 4.933-.339.784-.592 1.645-.931 2.427-1.016 2.662-.593 1.331-1.524 3.993-.254.627-.085 2.429 1.016 1.332 1.271-1.723 2.117-2.896 3.218-4.698zm13.549 14.095c-.422.783-1.863 2.506-1.863 3.368-.085.077-.338.312-.509.39a2.83 2.83 0 00-.676.94c-.17.392-.424.548-.592.862-1.187 1.957-1.95 3.054-3.897 4.777-.508.39-4.996 4.384-5.334 4.776-2.457 1.88-5.76 1.017-8.215 1.096-.678 0-1.355-.079-1.779-.312-.763-.392-2.455-1.02-2.964-1.723-.761-1.723-2.71-2.898-2.879-5.326-.085-.626-.424-1.018-.507-1.645.083-2.505.507-5.01.846-7.595.509-1.801.931-3.758 1.27-5.56.846-3.367 1.102-3.758 2.71-6.812.848-2.036 1.609-2.193 2.457-4.228a29.266 29.266 0 011.946-3.133c.509-1.174 1.355-2.27 2.118-3.446 1.609-2.584 3.386-4.854 5.25-6.733 1.27-1.175 2.626-2.428 3.896-3.446.763-.548 1.524-1.174 2.286-1.41.254-.156.509-.234.763-.313 1.185-.078 2.287.079 3.133.863.846.705 1.101 1.801.846 3.288-.169.939-.254 1.88-.507 2.74-.084.704-.423 1.331-.847 2.115-.592 1.331-1.27 2.584-2.201 3.837-.594 1.017-1.272 2.036-1.864 3.054-1.017 1.408-1.863 2.897-2.879 4.227-1.779 2.193-3.303 4.542-4.912 6.735-2.626 4.15-2.371 4.856-3.303 9.005-.339 1.644-.17 2.585-.253 4.228.083.47.338 3.525.423 3.838.254 1.096.507 1.488 1.015 2.506.17.313 1.355.547 1.779.705.593.39 5.082-2.428 5.675-2.82 1.355-.704 2.455-1.879 3.641-2.975 1.27-1.097 1.863-2.35 2.963-3.838 1.525-1.878 2.033-3.446 3.643-5.48 1.185-.158.507 1.487-.679 3.445z" fill="#000"/>
  <path fill-rule="evenodd" clip-rule="evenodd" d="M132.844 43.446c-.169.233-.422.547-.593.86-.338.55-.253.94.171 1.175.253.157.592.312.761.547.509.549 1.186.47 1.864.392.593-.157 1.017-.704 1.355-1.253.593-1.33.931-1.566 1.439-2.897 1.355-2.976-1.355-2.27-2.625-1.331-.931.625-1.609 1.644-2.372 2.507zm-10.67 6.263c-.423 1.253-.338 2.427-.17 3.602 0 .078.087.078.17.157.085-.861.171-1.644.254-2.428.085-.548.17-1.096-.083-1.566-.086.079-.171.157-.171.235zm0 5.011c.085.235.171.392.254.627 0 .234.254.39.085.704-.085-.078-.168-.078-.168-.156-.424-.783-.594-1.8-.763-2.82-.085-.078 0-.155 0-.233 0-1.175 0-2.272.339-3.446.083-.234.17-.47.17-.706v-.547c-.255.47-.424.784-.509 1.096-.085.392-.17.705-.254 1.096-.339 2.036-.255 3.916.676 5.56.17.313.424.548.678.862.167.148.371.256.594.313 0 .079.083 0 .253 0-.253-.392-.507-.705-.677-1.097-.254-.47-.254-.94-.507-1.331-.086 0-.171.078-.171.078zm8.045-7.047c0 .157-.169.313-.337.39-.086.08-.254.158-.254.394-.087.312-.17.39-.424.47-.17.077-.17.155-.255.626.17 0 .255 0 .339.078v.078h-.593c.085-.235.085-.47.085-.627h-.17c-.083.549-.169 1.096-.254 1.645.171.078.254.157.339.157.085.548.085 1.017.085 1.566 0 .547.169 1.017.339 1.41.254.313.931 2.035 1.185 2.348 1.185 1.096 2.625 2.506 3.981 2.584.423.08 2.879-.312 3.302-.392 2.033-.547 3.979-1.565 5.843-2.897 1.439-1.018 2.794-2.192 4.235-3.288l.253-.235c.509-.548 1.016-1.018 1.524-1.567.933-.86 1.779-1.723 2.542-2.74.254-.392.509-.783 1.016-.94-.17.706-.339 1.33-.677 1.957-.089.236-.234.45-.424.627-.508.55-.932 1.018-1.27 1.645-.254.312-.593.626-.847.94-.085.078-.17.234-.34.47.255-.079.424-.157.679-.236-.085.47-.509.548-.594.94.085.08.085.156.255.235-.255.392-.508.627-.848.94-.521.404-1.002.849-1.438 1.33-.763.784-1.609 1.41-2.457 2.037-.424.313-.761.627-1.185.862-.339.234-.677.392-1.016.626-.526.23-1.035.492-1.524.783-.848.47-1.779.861-2.71 1.018l-.763.235c-.989.295-2.012.478-3.049.547-1.185.157-6.182-.704-7.282-1.096-2.964-1.097-3.558-2.427-4.912-3.523-.507-.392-.931-1.019-1.186-1.644-.423-1.02-.508-2.115-.593-3.29 0-2.427.678-4.775 1.779-6.969.254-.47.254-.47.169-1.174-.422.235-.676.392-.846.862-.254.703-.593 1.33-1.017 2.035 0-.705.339-1.174.593-1.723.677-1.41 1.44-2.74 2.371-3.993a22.141 22.141 0 013.133-3.603c1.185-1.174 2.457-2.192 3.812-2.974.337-.157.592-.237.846-.392.424-.157.848-.236 1.1.155.255.237.594.158.763.315.255.157.338.469.508.626.847.392 4.065 1.174 4.827 1.644.254.157.424.47.593.784.424.704.762 1.488 1.355 1.957.17.157.254.47.339.704.17.94.253 1.801 0 2.82-.169 1.096-.678 2.114-1.27 3.053-.339.549-.678 1.018-.932 1.645-.168.548-.509 1.019-.847 1.566a2.308 2.308 0 01-.629.735 2.536 2.536 0 01-.895.44 2.895 2.895 0 01-1.609.235c-.254-.079-.507 0-.677-.314 0-.078-.084-.078-.084-.078-.679.078-1.101-.626-1.61-.861a.795.795 0 01-.169-.392c.169-.312 0-.47-.085-.704-.339-.627-.678-1.331-1.1-1.958-.087-.235-.341-.314-.594-.079-.085.392-.424.706-.424 1.175z" fill="#000"/>
</svg>
