<svg xmlns="http://www.w3.org/2000/svg" viewBox="0 0 30 30">
  <path d="M28 6.938c-.957.425-1.984.71-3.063.84a5.35 5.35 0 002.344-2.954 10.62 10.62 0 01-3.386 1.297A5.332 5.332 0 0020 4.437a5.335 5.335 0 00-5.195 6.547A15.14 15.14 0 013.809 5.41a5.33 5.33 0 00-.72 2.684c0 1.851.938 3.484 2.372 4.437a5.323 5.323 0 01-2.418-.664v.067a5.336 5.336 0 004.281 5.23 5.302 5.302 0 01-2.41.09 5.34 5.34 0 004.984 3.707 10.711 10.711 0 01-6.625 2.281c-.43 0-.855-.023-1.273-.074a15.076 15.076 0 008.176 2.398c9.812 0 15.176-8.128 15.176-15.18 0-.23-.004-.46-.016-.687A10.853 10.853 0 0028 6.938zm0 0" fill-rule="nonzero" fill="#2c343c" fill-opacity="1"/>
</svg>
