<svg xmlns="http://www.w3.org/2000/svg" fill="none" viewBox="0 0 180 77">
  <path fill-rule="evenodd" clip-rule="evenodd" d="M179.65 52.256c-6.588-.397-13.203.41-18.102-2.29-1.648-.097 1.734-4.705.135-7.21l-6.597-.395c-1.579-3.7 1.785-7.104.203-10.808-1.58-3.7-8.217-1.695-9.819-4.197-4.904-2.698 3.364-3.403 8.306-3.107-1.601-2.5 3.297.2 3.342-2.204.089-4.804.179-9.61-6.346-13.606-1.625-1.301.091-4.805.136-7.208C131.13.044 109.707-1.244 89.841 2.373 73.294 4.986 53.456-1.38 37.058 1.604c-4.968.905-13.117-4.397-16.524 1.41l4.942.299c-5.008 3.307-9.887-.594-14.852.309-.044 2.405-.068 3.605-1.74 4.706 3.297.199 8.263-.706 11.539.695l-.068 3.6c-3.32 1.005-8.219-1.693-11.538-.693l-.09 4.807c-.021 1.2-1.67 1.101-3.316 1.002l6.591.395-.09 4.804c-.022 1.204-1.669 1.105-3.319 1.006-.045 2.4-1.737 4.704-.112 6.004l4.945.296C6.81 31.05 3.4 36.855 3.336 40.46c1.672-1.103 1.604 2.502 3.273 1.399-5.01 3.305-10.045 7.811-3.475 9.407 57.612 7.072 117.031 5.833 174.758 6.897 3.32-1.004 1.713-3.506 1.758-5.907z" fill="#C7C9CD"/>
  <path fill-rule="evenodd" clip-rule="evenodd" d="M19.746 21.568v5.885h2.249c.552 0 .986-.268 1.304-.801.319-.535.477-1.236.477-2.107 0-.872-.162-1.586-.487-2.142-.326-.557-.757-.835-1.294-.835h-2.249zm0 10.41v9.505H16.12V17.041h5.876c1.726 0 3.069.731 4.03 2.192.963 1.463 1.443 3.228 1.443 5.296 0 1.415-.262 2.796-.785 4.142-.524 1.345-1.379 2.298-2.566 2.855l3.648 9.957h-4.242L20.17 31.98h-.425zM45.18 16.972v4.527h-5.389v5.259h4.753v4.525h-4.752v5.676h5.388v4.525h-9.014V16.971h9.014zm8.995 24.512V17.041h9.694v4.527h-6.066v5.257h4.54v4.526h-4.54v10.132h-3.628zm21.7-19.915v5.885h2.25c.55 0 .986-.268 1.304-.801.318-.535.477-1.236.477-2.107 0-.872-.161-1.586-.487-2.142-.325-.557-.758-.835-1.295-.835h-2.248zm0 10.41v9.505H72.25V17.041h5.875c1.725 0 3.07.731 4.032 2.192.961 1.463 1.442 3.228 1.442 5.296 0 1.415-.262 2.796-.786 4.142-.522 1.345-1.378 2.298-2.566 2.855l3.649 9.957H79.65l-3.35-9.504h-.425zm25.436-15.007v4.527h-5.389v5.259h4.752v4.525h-4.752v5.676h5.389v4.525h-9.017V16.971h9.017zm14.043 4.424c-.453 0-.824.196-1.115.591-.289.395-.433.963-.433 1.705 0 .745.133 1.34.403 1.794.267.453.617.801 1.049 1.044.431.244.912.475 1.442.697a12.55 12.55 0 011.58.8 6.573 6.573 0 011.432 1.167c.433.465.782 1.12 1.05 1.967.269.848.405 1.862.405 3.047 0 2.066-.514 3.836-1.539 5.311-1.025 1.473-2.375 2.21-4.052 2.21-1.676 0-3.027-.661-4.051-1.984-1.025-1.323-1.539-3.205-1.539-5.642h3.861c.1 1.949.708 2.926 1.824 2.926.524 0 .934-.228 1.231-.68.297-.453.445-1.029.445-1.723 0-.697-.134-1.265-.403-1.706-.298-.472-.656-.829-1.049-1.045a11.758 11.758 0 00-1.443-.714 10.947 10.947 0 01-1.581-.817c-.5-.307-.98-.699-1.431-1.168-.449-.486-.811-1.159-1.051-1.95-.269-.846-.403-1.85-.403-3.011 0-2.274.517-4.097 1.55-5.467 1.031-1.368 2.35-2.053 3.956-2.053 1.604 0 2.902.596 3.892 1.792.99 1.195 1.506 3.082 1.549 5.658h-3.946c-.056-.881-.23-1.56-.52-2.037-.29-.475-.661-.712-1.113-.712zm23.928-4.354h3.627v24.442h-3.627V31.351h-5.75v10.132h-3.626V17.041h3.626v9.784h5.75v-9.784zM45.358 67.247v9.67h-1.434V71.46l-1.368 5.455h-1.067l-1.367-5.455v5.455h-1.435v-9.67h1.645l1.694 6.668 1.687-6.667h1.645zm7.855 6.253h1.393l-.696-3.444-.697 3.444zm2.082 3.416l-.329-1.626h-2.113l-.327 1.626h-1.528l2.047-9.697h1.746l2.039 9.697h-1.535zm7.708-1.315c-.586-.932-.878-2.115-.878-3.547s.292-2.615.878-3.547c.584-.931 1.3-1.398 2.143-1.398.656 0 1.236.285 1.746.854.508.57.864 1.36 1.066 2.37h-1.712c-.224-.709-.582-1.061-1.074-1.061-.492 0-.88.251-1.163.757-.282.506-.423 1.18-.423 2.025 0 .847.141 1.522.423 2.024.282.505.663.758 1.137.758.341 0 .62-.14.836-.418.214-.282.359-.656.431-1.124h-1.66v-1.79h3.205v1.79a5.915 5.915 0 01-.881 2.467 2.981 2.981 0 01-.852.895 1.89 1.89 0 01-1.079.344c-.844 0-1.559-.467-2.143-1.399zM75.476 73.5h1.394l-.697-3.444-.697 3.444zm2.083 3.416l-.328-1.626h-2.115l-.327 1.626h-1.527l2.047-9.697h1.746l2.039 9.697h-1.535zm11.127-9.67v1.793l-2.51 6.085h2.51v1.792h-4.162v-1.792l2.508-6.085h-2.508v-1.792h4.162zm5.983 9.67h1.436v-9.67h-1.436v9.67zm11.464-9.697h1.434v9.697h-1.434l-2.4-6.101v6.101h-1.435V67.22h1.435l2.4 6.102V67.22zm11.195 0v1.79h-2.131v2.082h1.88v1.79h-1.88v2.243h2.131v1.792h-3.566V67.22h3.566z" fill="#000"/>
</svg>
