<svg xmlns="http://www.w3.org/2000/svg" fill="none" viewBox="0 0 169 77">
  <path fill-rule="evenodd" clip-rule="evenodd" d="M29.159 76.011c-.575-.654-.86-1.481-.86-2.483 0-1.003.288-1.83.864-2.484.575-.653 1.28-.98 2.115-.98.634 0 1.197.19 1.689.562.492.376.843.903 1.056 1.583h-1.412c-.26-.596-.705-.893-1.333-.893-.53 0-.959.202-1.289.606-.331.405-.496.94-.496 1.61 0 .67.165 1.207.496 1.61.33.404.76.607 1.289.607.622 0 1.068-.298 1.334-.892h1.411c-.191.647-.563 1.202-1.056 1.575a2.716 2.716 0 01-1.69.557c-.839 0-1.545-.325-2.118-.978zm15.159-.868c.327-.404.491-.943.491-1.615 0-.673-.164-1.21-.491-1.61a1.586 1.586 0 00-1.286-.602c-.528 0-.959.202-1.289.606-.331.405-.496.94-.496 1.61 0 .67.165 1.207.496 1.61.33.404.76.607 1.289.607.528 0 .957-.203 1.286-.606zM43.032 77c-.84 0-1.546-.327-2.12-.98-.571-.653-.859-1.482-.859-2.488 0-1.005.29-1.834.864-2.488.575-.653 1.283-.98 2.12-.98.837 0 1.541.328 2.114.98.573.654.86 1.483.86 2.488 0 1.006-.287 1.835-.86 2.489-.573.652-1.278.979-2.12.979zm9.245-.068v-6.77h3.603v1.048h-2.428v1.774h1.853v1.049h-1.853v2.9h-1.175zm9.867 0v-6.77h3.606v1.048h-2.428v1.774h1.851v1.049h-1.85v2.9h-1.179zm13.235-6.79v1.048h-2.186v1.774h1.935v1.049h-1.935v1.87h2.186v1.05h-3.364v-6.79h3.364zm9.902 0v1.048h-2.185v1.774h1.934v1.049h-1.934v1.87h2.185v1.05h-3.363v-6.79h3.363zm16.267 1.02a.79.79 0 00-.569.207.707.707 0 00-.17.258.802.802 0 00-.052.32c0 .245.055.437.163.577.108.14.251.245.429.319.178.075.374.141.584.2.211.058.423.128.635.213.211.084.405.187.583.31.183.13.332.316.429.539.109.236.163.522.163.858 0 .556-.189 1.035-.571 1.435-.38.4-.887.602-1.519.602-.63 0-1.141-.174-1.531-.519-.39-.345-.583-.832-.583-1.46h1.251c.044.594.337.892.876.892.267 0 .478-.08.635-.24a.835.835 0 00.178-.294.936.936 0 00.054-.353.812.812 0 00-.08-.366.68.68 0 00-.227-.268 2.104 2.104 0 00-.748-.35 9.625 9.625 0 01-.879-.283 1.63 1.63 0 01-.751-.577c-.206-.273-.31-.637-.31-1.09 0-.614.192-1.106.576-1.473.385-.37.877-.554 1.481-.554.603 0 1.09.16 1.456.48.367.32.568.808.601 1.46h-1.285a.99.99 0 00-.25-.616.746.746 0 00-.569-.227zm12.341-1h1.176v6.77h-1.176v-2.9h-2.504v2.9h-1.176v-6.77h1.176v2.822h2.504v-2.821zm11.705 4.98c.327-.403.491-.942.491-1.614 0-.673-.164-1.21-.491-1.61a1.583 1.583 0 00-1.285-.602c-.528 0-.959.202-1.289.606-.331.405-.496.94-.496 1.61 0 .67.165 1.207.496 1.61.33.404.761.607 1.289.607a1.58 1.58 0 001.285-.606zM124.309 77c-.84 0-1.546-.327-2.119-.98-.573-.653-.86-1.482-.86-2.488 0-1.005.288-1.834.864-2.488.577-.653 1.283-.98 2.119-.98.837 0 1.541.328 2.115.98.573.654.858 1.483.858 2.488 0 1.006-.285 1.835-.858 2.489-.574.652-1.279.979-2.119.979zm10.42-3.812h.968c.295 0 .52-.089.675-.267a.988.988 0 00.182-.333 1.09 1.09 0 00.053-.39 1.087 1.087 0 00-.053-.389.982.982 0 00-.182-.332c-.155-.18-.38-.267-.675-.267h-.968v1.978zm2.628.349a1.53 1.53 0 01-.655.51 2.479 2.479 0 01-1.005.188h-.968v2.697h-1.176v-6.77h2.144c.672 0 1.193.196 1.556.587.364.392.546.852.546 1.382 0 .53-.148.999-.442 1.406z" fill="#000"/>
  <path fill-rule="evenodd" clip-rule="evenodd" d="M.294 54.688c-.245-.427-.337-1.108-.276-2.046.06-.94.22-1.997.477-3.178a49.29 49.29 0 01.972-3.71c.39-1.292.783-2.528 1.173-3.709.393-1.178.752-2.238 1.082-3.177.33-.936.569-1.62.716-2.046.171-.425.397-1.03.678-1.812.281-.78.586-1.634.917-2.558l1.045-2.922a493.85 493.85 0 001.045-2.94c.52-1.47 1.052-2.934 1.595-4.393.538-.198.894-.178 1.065.065.17.24.22.646.146 1.214-.072.57-.245 1.257-.513 2.068a63.835 63.835 0 01-.935 2.602c-.355.924-.722 1.868-1.1 2.835a88.527 88.527 0 00-1.028 2.75c-.277.77-.51 1.56-.696 2.366-.16.71-.202 1.279-.13 1.706.44.056.949.056 1.524 0a20.4 20.4 0 001.76-.255 37.384 37.384 0 001.778-.384c.511-.126 1.025-.24 1.54-.342 2.225-.425 4.005-1.036 5.336-1.833a11.078 11.078 0 003.34-3.049c.892-1.237 1.667-2.721 2.327-4.456.66-1.733 1.418-3.752 2.274-6.054.22-.484.417-.69.588-.619.17.072.311.27.42.597.112.327.19.69.238 1.087.052.4.052.683 0 .854a5.904 5.904 0 01-.219.554c-.132.307-.266.612-.402.916l-.405.897c-.082.172-.156.35-.22.532-.072.187-.134.38-.184.576-.072.27-.158.56-.256.873-.15.478-.284.961-.404 1.45.123.029.288.164.495.405.209.242.325.434.349.575.074.486-.06 1.032-.403 1.641-.38.67-.803 1.304-1.266 1.9l-1.467 1.918c-.475.625-.8 1.208-.97 1.747a98.733 98.733 0 00-2.587 8.529 65.804 65.804 0 00-1.595 8.826c-.088.163-.2.306-.33.425-.147.143-.306.157-.478.043-.049-.624-.004-1.484.13-2.578.15-1.2.327-2.394.531-3.582.22-1.294.464-2.608.733-3.945.27-1.335.52-2.565.752-3.689.232-1.122.422-2.052.57-2.792.145-.738.206-1.151.183-1.237-.514-.112-1.173-.134-1.98-.063-.808.07-1.689.2-2.64.384a57.96 57.96 0 00-5.961 1.492c-.967.298-1.864.583-2.696.853-.832.27-1.516.505-2.055.703a22.806 22.806 0 00-1.026 3.56 678.32 678.32 0 01-.825 3.902 61.387 61.387 0 01-.935 3.773 13.3 13.3 0 01-1.357 3.22 1.412 1.412 0 01-.24-.212.999.999 0 01-.2-.257zm25.672-2.43c.196.909.612 1.414 1.247 1.512.636.101 1.375-.084 2.22-.552.843-.47 1.729-1.152 2.659-2.048a22.46 22.46 0 002.548-2.92 19.29 19.29 0 001.908-3.177c.5-1.066.744-1.996.733-2.793-.012-.795-.342-1.4-.99-1.813-.649-.41-1.73-.49-3.246-.233-.342.369-.783.817-1.32 1.342a44.978 44.978 0 00-1.67 1.727 32.11 32.11 0 00-1.706 2.026 16.47 16.47 0 00-1.466 2.238 9.306 9.306 0 00-.898 2.346 5.234 5.234 0 00-.019 2.345zm.404 2.43c-1.027-.483-1.669-1.208-1.926-2.175-.258-.966-.251-2.039.018-3.219.27-1.179.733-2.4 1.395-3.667a23.896 23.896 0 012.2-3.476 18.969 18.969 0 012.44-2.664c.818-.725 1.52-1.13 2.107-1.215 1.517-.227 2.708-.107 3.575.363.87.468 1.463 1.145 1.78 2.024.317.882.404 1.913.256 3.092a13.42 13.42 0 01-.97 3.56 17.713 17.713 0 01-1.945 3.454 13.437 13.437 0 01-2.64 2.793 7.691 7.691 0 01-3.063 1.492 5.025 5.025 0 01-3.227-.362zm33.65-1.77a5.353 5.353 0 01.073-1.406 8.59 8.59 0 01.365-1.364c.159-.441.312-.846.46-1.216.098-.284.298-.803.605-1.557.305-.752.636-1.541.99-2.367.354-.824.69-1.598 1.009-2.322.318-.725.538-1.23.66-1.516v-.936c-.244-.143-.746.05-1.504.576-.757.525-1.637 1.25-2.64 2.173a95.822 95.822 0 00-3.19 3.092 256.421 256.421 0 00-3.174 3.262c-.99 1.038-1.852 1.96-2.585 2.77-.734.811-1.199 1.344-1.393 1.6-.539.2-.887.063-1.046-.405-.16-.468-.203-1.122-.13-1.962.092-.948.239-1.888.44-2.814a88.73 88.73 0 011.304-5.308c.183-.654.263-1.008.237-1.067-.488-.198-1.003-.127-1.54.214-.538.34-1.088.847-1.65 1.515a20.76 20.76 0 00-1.687 2.344l-1.689 2.686c-.56.895-1.1 1.749-1.61 2.558-.44.709-.931 1.372-1.469 1.983-.465.511-.899.81-1.302.895-.404.086-.751-.128-1.046-.639-.023-.027-.035-.098-.035-.213 0-.114.012-.198.035-.257.123-.282.312-.73.57-1.343.256-.61.544-1.3.862-2.067.317-.768.659-1.57 1.026-2.409.368-.838.715-1.635 1.044-2.387.33-.753.625-1.429.88-2.026.258-.597.459-1.038.607-1.323.121-.283.293-.645.514-1.087a51.45 51.45 0 011.503-2.792h.88c.171.654.146 1.265-.073 1.833a12.577 12.577 0 01-.79 1.663c-.29.51-.547 1.044-.77 1.599-.208.526-.213 1.088-.018 1.685 2.104-2.161 3.724-3.753 4.86-4.776 1.137-1.024 1.938-1.607 2.402-1.748.464-.143.684.07.662.639-.025.57-.13 1.337-.314 2.302a87.01 87.01 0 00-.55 3.305c-.181 1.19-.2 2.407-.055 3.604h.44c.148-.113.392-.327.734-.64l1.12-1.024c.402-.37.782-.71 1.136-1.023.246-.22.497-.433.752-.64.27-.255.66-.61 1.173-1.066a529.65 529.65 0 001.56-1.386c.525-.468 1.002-.88 1.43-1.236.427-.354.702-.575.825-.66a53.348 53.348 0 011.742-1.407c.404-.314.788-.604 1.155-.875.367-.27.636-.475.807-.62.368-.283.71-.41 1.027-.383.317.03.58.164.788.407.209.24.335.568.384.98.05.412 0 .874-.145 1.385a450.21 450.21 0 01-1.742 3.752 55.989 55.989 0 00-1.577 3.689 28.574 28.574 0 00-1.173 3.816 19.599 19.599 0 00-.496 4.178.324.324 0 01-.192.065.324.324 0 01-.193-.065 1.717 1.717 0 01-.385-.34 4.64 4.64 0 01-.44-.64 2.388 2.388 0 01-.458-1.258zM78.228 38.4c-.024-.028-.207.092-.55.362-.343.27-.764.626-1.265 1.067a117.15 117.15 0 00-3.19 2.92c-.477.456-.875.847-1.193 1.172-.317.327-.453.492-.404.492.392.084.9.02 1.523-.192a10.491 10.491 0 001.945-.918 15.935 15.935 0 001.925-1.342c.61-.499 1.094-.987 1.448-1.472.354-.484.537-.909.55-1.279.013-.37-.251-.64-.789-.81zm-8.766 16.288c-.731-.284-1.289-.718-1.666-1.302a5.084 5.084 0 01-.754-1.938 8.044 8.044 0 01-.054-2.24c.085-.78.225-1.527.422-2.238.733-.909 1.558-1.954 2.476-3.133a60.95 60.95 0 012.915-3.475 39.84 39.84 0 013.207-3.178c1.115-.98 2.245-1.727 3.395-2.238.391-.198.701-.192.935.021.232.214.398.548.495 1.003.097.454.14.98.128 1.578a16.352 16.352 0 01-.128 1.747 11.93 11.93 0 01-.293 1.535c-.124.456-.244.767-.367.94-.293.397-.862.866-1.706 1.405-.844.54-1.778 1.13-2.806 1.77a121.53 121.53 0 00-3.079 1.982c-1.028.683-1.87 1.358-2.532 2.026-.66.668-1.051 1.33-1.174 1.982-.123.655.22 1.252 1.027 1.791.832.114 1.84.065 3.026-.148a36.315 36.315 0 003.631-.854 88.46 88.46 0 003.576-1.108c1.15-.384 2.09-.688 2.824-.917l.44.468c-.537.826-1.418 1.578-2.64 2.262a20.761 20.761 0 01-3.962 1.683c-1.418.441-2.8.725-4.145.852-1.344.13-2.408.037-3.19-.276z" fill="#272525"/>
  <path fill-rule="evenodd" clip-rule="evenodd" d="M103.076 52.918a5.427 5.427 0 01.073-1.406 8.54 8.54 0 01.367-1.364c.159-.441.313-.846.458-1.216.097-.284.3-.803.606-1.557.305-.752.636-1.541.99-2.367.354-.824.691-1.598 1.009-2.322.317-.725.537-1.23.66-1.516v-.936c-.246-.143-.747.05-1.504.576-.758.525-1.638 1.25-2.641 2.173a98.017 98.017 0 00-3.19 3.092 264.446 264.446 0 00-3.172 3.262c-.873.91-1.735 1.834-2.586 2.77-.735.811-1.199 1.344-1.394 1.6-.539.2-.887.063-1.046-.405-.16-.468-.2-1.122-.13-1.962.092-.948.239-1.889.442-2.814.219-1.037.446-2.017.678-2.942.233-.923.442-1.712.625-2.366.182-.654.261-1.008.236-1.067-.488-.198-1-.127-1.54.214-.537.34-1.087.847-1.65 1.515a21.26 21.26 0 00-1.687 2.344l-1.686 2.686a611.88 611.88 0 01-1.614 2.558c-.439.709-.93 1.372-1.467 1.983-.466.511-.899.81-1.303.895-.403.086-.751-.128-1.044-.639-.024-.027-.037-.098-.037-.213a.702.702 0 01.037-.257 395.86 395.86 0 001.43-3.41c.318-.768.66-1.57 1.027-2.409l1.046-2.387.88-2.026a21.28 21.28 0 01.605-1.323c.121-.283.292-.645.512-1.087.22-.44.44-.866.66-1.279.221-.411.501-.916.844-1.513h.881c.17.654.145 1.265-.074 1.833a12.746 12.746 0 01-.788 1.663 12.78 12.78 0 00-.77 1.598c-.207.527-.214 1.089-.019 1.686 2.104-2.161 3.723-3.753 4.86-4.776 1.136-1.024 1.938-1.607 2.403-1.748.464-.143.683.07.66.639-.024.57-.13 1.337-.312 2.302a82.36 82.36 0 00-.55 3.305 13.228 13.228 0 00-.056 3.604h.441c.145-.113.39-.327.733-.64l1.118-1.024c.404-.37.783-.71 1.137-1.023.355-.312.605-.526.753-.64.27-.255.66-.61 1.172-1.066.515-.454 1.034-.916 1.56-1.386.526-.468 1.002-.88 1.43-1.236.427-.354.702-.575.825-.66a58.947 58.947 0 012.898-2.283c.367-.268.635-.474.808-.618.366-.284.708-.411 1.025-.384.297.018.578.163.789.407.208.24.336.568.386.98.049.412 0 .874-.148 1.385a368.334 368.334 0 01-1.742 3.752 55.758 55.758 0 00-1.576 3.689 28.705 28.705 0 00-1.174 3.816 19.826 19.826 0 00-.496 4.178.328.328 0 01-.193.065.325.325 0 01-.192-.065 1.746 1.746 0 01-.385-.34 4.565 4.565 0 01-.44-.64 2.408 2.408 0 01-.458-1.258zm8.82-.192c.221.91.709 1.33 1.467 1.26.759-.072 1.639-.506 2.641-1.303 1.003-.795 2.041-1.882 3.118-3.262a28 28 0 002.897-4.605 24.474 24.474 0 001.962-5.35c.452-1.877.568-3.723.349-5.542-.586-.54-1.32-.562-2.201-.065-.881.497-1.816 1.308-2.806 2.43-.99 1.124-1.967 2.46-2.934 4.008a43.642 43.642 0 00-2.548 4.691c-.734 1.577-1.291 3.063-1.669 4.455-.379 1.394-.471 2.488-.276 3.283zm-.403 1.45c-.587-.567-.911-1.407-.973-2.517-.061-1.106.075-2.357.404-3.75.332-1.393.82-2.85 1.467-4.371a31.984 31.984 0 012.257-4.35 24.898 24.898 0 012.787-3.71c1.001-1.092 2.004-1.903 3.008-2.43 1.002-.524 1.98-.709 2.934-.554.953.157 1.819.805 2.604 1.94.488.712.781 1.428.879 2.154a7.452 7.452 0 01-.037 2.217 13.86 13.86 0 01-.586 2.303c-.27.783-.532 1.57-.789 2.365a20.757 20.757 0 00-.624 2.432 8.228 8.228 0 00-.09 2.515c.122 1.081.536 1.72 1.247 1.92.707.197 1.559.14 2.549-.173.99-.311 2.035-.81 3.135-1.492a51.501 51.501 0 003.063-2.046 71.547 71.547 0 003.282-2.557c.683-.172 1.069-.122 1.156.149.084.27-.05.667-.404 1.192-.355.527-.886 1.124-1.597 1.792a20.526 20.526 0 01-2.419 1.94 23.353 23.353 0 01-2.898 1.705c-.962.49-1.972.84-3.008 1.044a6.444 6.444 0 01-2.768-.041c-.846-.197-1.605-.733-2.146-1.514a4.094 4.094 0 01-.605-1.023 2.263 2.263 0 00-.643-.896 31.479 31.479 0 00-1.319 1.557 32.792 32.792 0 01-1.669 1.917 22.478 22.478 0 01-1.906 1.813 7.591 7.591 0 01-2.073 1.279 4.337 4.337 0 01-2.146.3c-.721-.087-1.411-.455-2.072-1.11z" fill="#272525"/>
  <path fill-rule="evenodd" clip-rule="evenodd" d="M135.662 52.258c.098.484.472.625 1.12.425.647-.198 1.411-.617 2.291-1.257a32.135 32.135 0 002.806-2.324 34.79 34.79 0 002.679-2.73c.793-.908 1.416-1.748 1.869-2.515.452-.768.593-1.336.421-1.706a4.612 4.612 0 00-2.529-.724c-.93 0-1.853.192-2.769.575-.94.399-1.829.944-2.642 1.621a10.1 10.1 0 00-2.126 2.409 9.147 9.147 0 00-1.211 2.964 6.893 6.893 0 00.091 3.262zm13.682 1.917a6.321 6.321 0 01-2.019-2.749 17.553 17.553 0 01-.916-3.517h-.403c-1.982 1.875-3.7 3.282-5.153 4.22-1.455.938-2.683 1.514-3.687 1.727-1.002.213-1.785.121-2.346-.276a2.489 2.489 0 01-.695-.734 2.931 2.931 0 01-.388-.993c-.158-.754-.127-1.643.092-2.665a12.403 12.403 0 011.137-3.093 13.912 13.912 0 012.09-2.963 11.019 11.019 0 012.953-2.302c1.113-.596 2.347-.974 3.705-1.13 1.356-.155 2.818.021 4.382.534l.403-.513 4.951-11.555c.662.115 1.051.456 1.174 1.023.122.57.115 1.195-.018 1.876-.135.683-.33 1.343-.587 1.984-.257.64-.446 1.102-.569 1.386l-.421.98c-.209.484-.453 1.06-.734 1.728-.281.667-.581 1.37-.899 2.11-.317.739-.618 1.443-.897 2.11-.282.669-.532 1.25-.752 1.748a14.5 14.5 0 00-.403.96 7.892 7.892 0 00-.605 3.347c.036 1.18.09 2.31.164 3.39.098.51.293.931.586 1.258.295.327.606.625.936.895.33.27.66.533.991.79.33.254.604.567.825.937-.099.368-.295.56-.586.576a2.016 2.016 0 01-.918-.192 4.684 4.684 0 01-.881-.511c-.269-.2-.441-.327-.512-.386z" fill="#272525"/>
  <path fill-rule="evenodd" clip-rule="evenodd" d="M163.828 38.4c-.024-.028-.208.092-.55.362-.343.27-.764.626-1.266 1.067a110.79 110.79 0 00-3.19 2.92 48.16 48.16 0 00-1.192 1.172c-.317.327-.453.492-.404.492.392.084.9.02 1.523-.192a10.509 10.509 0 001.944-.918 16.077 16.077 0 001.925-1.342c.611-.499 1.095-.987 1.449-1.472.353-.484.537-.909.55-1.279.012-.37-.252-.64-.789-.81zm-8.765 16.288c-.733-.284-1.29-.718-1.669-1.302a5.073 5.073 0 01-.751-1.938 7.927 7.927 0 01-.054-2.24c.08-.76.221-1.509.421-2.238.733-.909 1.559-1.954 2.474-3.133.935-1.2 1.908-2.36 2.917-3.476a39.554 39.554 0 013.208-3.177c1.113-.98 2.244-1.727 3.392-2.238.393-.198.703-.192.937.021.232.214.397.548.495 1.003.096.454.14.98.129 1.578a16.279 16.279 0 01-.129 1.747c-.074.57-.172 1.08-.293 1.535-.125.456-.245.767-.368.94-.294.397-.86.866-1.705 1.405-.844.54-1.779 1.13-2.806 1.77-1.026.639-2.053 1.3-3.081 1.982-1.026.683-1.871 1.358-2.531 2.026-.659.668-1.051 1.33-1.174 1.982-.122.655.221 1.252 1.029 1.791.83.114 1.838.065 3.025-.149a36.26 36.26 0 003.631-.853 88.795 88.795 0 003.577-1.108c1.149-.384 2.09-.688 2.823-.917l.439.468c-.537.826-1.418 1.578-2.64 2.261a20.795 20.795 0 01-3.961 1.684c-1.419.441-2.8.725-4.144.852-1.345.13-2.409.037-3.191-.276zm-84.24-31.376a1.167 1.167 0 01-.028-.341c0-.186.01-.308.028-.37.053-.227.15-.623.292-1.191l.453-1.795.451-1.777c.186-.725.363-1.452.532-2.182.09-.38.106-.745.054-1.097-.266-.041-.595-.005-.985.107-.39.115-.776.208-1.158.28a2.631 2.631 0 01-1.063 0c-.328-.072-.563-.315-.705-.728.213-.516.532-.85.958-1.004.45-.161.914-.27 1.383-.325.497-.062.97-.155 1.424-.28.451-.122.81-.4 1.076-.833.161-.537.351-1.191.573-1.965.222-.774.457-1.583.705-2.428.248-.845.519-1.681.81-2.506.294-.824.6-1.556.92-2.196.194-.143.354-.154.478-.03.124.123.216.305.28.541.062.238.101.479.12.726.017.249.017.413 0 .496a8.9 8.9 0 01-.546 1.716c-.257.61-.496 1.222-.718 1.84a14.631 14.631 0 00-.533 1.856 4.093 4.093 0 00-.012 1.763h5.72c.017 0 .062.067.132.202.071.134.133.243.187.324.087.289-.01.485-.294.588a4.23 4.23 0 01-1.144.201c-.478.03-1.023.052-1.636.062-.61.01-1.196.061-1.756.155-.515.08-1.02.235-1.502.463-.444.217-.745.542-.906.975a88.396 88.396 0 00-1.275 4.16c-.393 1.4-.766 2.807-1.119 4.221a2.516 2.516 0 01-.558.636.462.462 0 01-.358.107c-.116-.021-.21-.144-.28-.371zm8.166-.372a.44.44 0 01-.026-.169.456.456 0 01.026-.17l.36-.85c.168-.404.346-.826.533-1.27.186-.442.367-.86.545-1.25a50.2 50.2 0 00.371-.836c.037-.063.13-.238.28-.526l.559-1.069c.222-.42.462-.89.718-1.406.257-.514.515-1.02.771-1.515.258-.496.497-.96.718-1.392.224-.433.404-.794.547-1.084.355-.68.767-1.483 1.237-2.412.469-.927.954-1.866 1.45-2.813.496-.949.988-1.867 1.475-2.754.49-.886.936-1.618 1.345-2.197.408-.577.753-.958 1.037-1.144.284-.185.48-.06.586.372v.99c-.124.227-.292.52-.506.881-.21.36-.429.743-.65 1.144-.215.39-.433.776-.654 1.16-.213.37-.373.66-.478.866l-.773 1.392c-.353.639-.753 1.36-1.196 2.166a126.578 126.578 0 00-2.608 4.978 32.32 32.32 0 00-.89 1.965c-.223.547-.306.892-.253 1.037.488-.18.95-.447 1.37-.79.5-.392.993-.8 1.477-1.221.496-.433.993-.85 1.49-1.253a9.01 9.01 0 011.383-.943c.425.062.799.248 1.118.556.318.31.548.702.69 1.176-.023.345-.036.69-.039 1.036a87.232 87.232 0 000 3.17c.01.496.023.835.04 1.02.017.228.107.512.265.851.16.341.333.682.52 1.021.187.34.356.634.506.881.15.247.217.382.198.402-.324.145-.682.15-1.01.016a2.103 2.103 0 01-.838-.65 3.906 3.906 0 01-.585-1.02 4.14 4.14 0 01-.28-1.129 62.517 62.517 0 01-.172-2.63l-.08-1.576a23.05 23.05 0 01-.04-1.02l-.613-.372c-.105-.063-.287-.01-.545.155a8.396 8.396 0 00-.891.68c-.337.289-.69.619-1.065.99-.372.37-.722.722-1.05 1.052-.431.43-.853.873-1.264 1.329-.141.166-.397.459-.772.881-.795.902-1.58 1.814-2.355 2.739-.363.432-.615.743-.758.927-.23.06-.468.086-.705.076-.221-.009-.394-.158-.519-.448zm21.924-11.444c-.019-.02-.151.068-.4.263-.248.197-.555.454-.918.774a81.89 81.89 0 00-2.314 2.12 27.15 27.15 0 00-.864.85c-.231.236-.329.355-.293.355.282.063.65.015 1.104-.14a7.468 7.468 0 001.409-.665c.484-.286.952-.611 1.398-.973a6.08 6.08 0 001.051-1.067c.256-.351.389-.66.397-.928.01-.268-.181-.464-.57-.589zm-6.36 11.816c-.531-.206-.936-.52-1.21-.944a3.694 3.694 0 01-.546-1.406 5.82 5.82 0 01-.039-1.624c.061-.567.164-1.109.305-1.625a156.26 156.26 0 001.797-2.273 44.334 44.334 0 012.114-2.52 29.266 29.266 0 012.328-2.305 9.744 9.744 0 012.461-1.624c.284-.144.51-.14.679.016.169.155.288.397.359.726.07.331.103.712.094 1.145-.011.433-.04.857-.094 1.268a8.66 8.66 0 01-.213 1.113c-.089.331-.176.557-.266.681-.213.289-.625.63-1.236 1.021-.613.392-1.291.82-2.035 1.283a84.84 84.84 0 00-2.237 1.439 11.6 11.6 0 00-1.833 1.469c-.481.485-.764.964-.853 1.438-.088.474.16.907.746 1.299.603.083 1.333.047 2.194-.108.886-.16 1.764-.367 2.634-.618.869-.25 1.733-.518 2.593-.805.681-.228 1.364-.45 2.048-.664l.321.339c-.391.599-1.03 1.145-1.917 1.64-.886.495-1.845.902-2.872 1.221a14.87 14.87 0 01-3.008.619c-.974.093-1.747.026-2.314-.201z" fill="#272525"/>
</svg>
