<svg xmlns="http://www.w3.org/2000/svg" fill="none" viewBox="0 0 143 91">
  <path fill-rule="evenodd" clip-rule="evenodd" d="M28.793 60.88l.38 1.16c-1.41-3.688-2.266-7.793-2.548-11.854.043 2.218.207 4.559.647 6.888.463 2.316 1.072 4.652 2 6.794 1.746 4.337 4.504 7.924 7.254 10.005-.09.551 1.223 2.545 2.795 4.217.391.418.784.828 1.158 1.207l1.083.954c.647.548 1.096.905 1.166.88l2.3 1.4 2.37 1.302c-1.071-.628-2.186-1.183-3.217-1.869 1.032.686 2.146 1.241 3.218 1.87a73.885 73.885 0 007.928 3.522 68.914 68.914 0 008.58 2.469c2.962.603 6.014.99 9.126 1.131 3.118.157 6.279-.124 9.453-.547l3.125-.651c.603-.109 1.22-.31 1.87-.505l2.03-.616c.704-.21 1.395-.528 2.123-.801.715-.302 1.478-.542 2.196-.914 1.452-.713 2.972-1.41 4.386-2.308 1.469-.808 2.82-1.81 4.159-2.746.67-.467 1.268-1.014 1.886-1.504.607-.507 1.226-.973 1.752-1.51 1.084-1.038 2.13-1.984 2.952-2.956l1.203-1.326c.378-.412.674-.839.972-1.201.661-.865 1.366-1.691 1.941-2.638l-.613.897-.463.579-1.139 1.42a43.19 43.19 0 005.653-11.374c-.361.617-.523.69-1.298 2.16l.841-1.844c.116-.45.201-1.073.373-1.742.144-.68.388-1.405.518-2.17l.398-2.225c.146-.695.142-1.336.187-1.832.06.224.149-.05.246-.555.046-.253.105-.561.146-.895l.081-1.033-.147.537c.261-2.61.13-5.431-.133-8.152-.204-1.35-.334-2.695-.615-3.956l-.362-1.862-.423-1.739a8.265 8.265 0 01-.223-1.407c-.479-1.395-.906-2.806-1.48-4.162.168.12-.094-.76-.292-1.431-.212-.664-.378-1.112.094-.162-1.471-2.973-2.804-6.063-4.64-8.629-2.912-4.777-6.584-9.355-11.145-12.982A37.829 37.829 0 0083.214.56c.084.046.164.104.247.16-.976-.2-1.939-.324-2.887-.468-.952-.133-1.919-.125-2.895-.203l-.74-.047c-.247-.005-.5.007-.751.008l-1.551.005c-1.06-.053-2.164.062-3.36.082-.42.071-.867.112-1.319.207l-1.38.307c-.93.219-1.877.37-2.727.683a48.35 48.35 0 00-2.295.785 5.646 5.646 0 00-1.417.756c-.797.272-1.591.555-2.38.851-.686.293-1.289.602-1.892.891l-1.864.905-2.175 1.207c.488-.104-.298.37-.986.786-.686.403-1.282.826-.408.452 2.38-.777 2.356-1.151 4.374-1.763l-.09-.052c4.524-1.825 9.248-3.046 14.005-3.353 4.754-.317 9.518.296 14.006 1.858 3.03.934 6.04 2.44 8.815 4.379 2.779 1.935 5.333 4.28 7.574 6.83 2.441 2.72 4.674 5.861 6.517 9.1a60.341 60.341 0 014.376 9.575c.253.72.413 1.362.541 1.98.116.62.166 1.228.271 1.87a45.783 45.783 0 011.428 9.538c.142 3.4-.139 6.889-.882 10.014l.073-.308c-.067.424-.195.822-.323 1.207l-.37 1.131c-.13.366-.228.735-.386 1.079l-.464 1.026c-.567 1.382-1.331 2.657-2.086 4.155.068.022-.205.467-.307.7-.074.042-.283.34-.594.834l-.54.88-.753 1.071-.876 1.26c-.306.45-.693.87-1.058 1.336-.374.457-.748.942-1.15 1.416l-1.294 1.373c-1.733 1.854-3.715 3.487-5.32 4.686-1.623 1.167-2.878 1.892-3.144 2.023-.297.192-.625.357-.952.537-3.19 1.662-6.717 2.7-10.132 3.332-3.42.665-6.76.835-9.782.854-1.315.204-2.807.183-3.94.314-1.061-.268-1.295-.021-2.593-.21-3.174-1.162-5.064-1.438-3.465-.796-2.699-.46-5.292-1.422-7.565-2.27-1.055-.397-2.124-.754-3.163-1.228-.894-.379-1.348-.687-1.695-1.076-1.1-.562-1.475-.788-1.85-1.04-.362-.274-.725-.572-1.799-1.29-.106-.126-.498-.404-1.032-.767-.53-.371-1.25-.763-1.901-1.254-.659-.48-1.362-.921-1.867-1.349-.514-.417-.902-.741-1.025-.879l.334.262-.772-.754-.652-.77c-.406-.514-.82-.971-1.158-1.497-.352-.512-.7-1.019-1.076-1.537a35.93 35.93 0 00-1.144-1.682c-1.102-1.682-2.176-3.442-3.04-5.328-.479-.921-.833-1.903-1.245-2.858-.333-.986-.728-1.951-.988-2.958-1.2-3.977-1.666-8.097-1.596-11.86-.236-.077.065 1.66-.249 1.755-.04-2.236.173-4.48.52-6.695.357-2.22.922-4.389 1.535-6.538.303-.75.693-1.657.889-1.974.572-1.3.183-.826.57-1.793l.246-.051c.437-1.462 1.054-1.948 1.621-3.244-.042-.106.175-.578.406-1.026.211.09.749-1.358.892-1.19l-.007-.02c.154-.26.24-.46.463-.756l.516-1.074.435-.902.539-.974c.703-1.346 1.573-2.596 1.71-2.87l.202-.19c.532-.616.655-.983.299-.66l.692-.736-.069.097.688-.734c.147-.114.372-.183.239.087a8.77 8.77 0 011.213-1.29 62.69 62.69 0 00-3.978 3.407c.355-.604 1.298-1.428 1.781-1.994.344-.285.875-.711 1.456-1.175.572-.476 1.19-.99 1.77-1.394.225-.212.226-.549.831-.921.362-.094.62-.497 1.158-.75a6.966 6.966 0 01-.76.65l-.773.64c.11.043.444-.199.806-.489.378-.268.789-.579 1.018-.717.16-.207 1.23-.949 1.898-1.427-.188.365.618-.258 1.077-.436.463-.293.745-.51.51-.468.021-.315-1.907 1.096-1.39.47.227-.023 1.104-.669 1.618-.95-.054-.107-.392.122-.12-.168.577-.304 1.11-.78 1.492-.86-.09.091-.334.209-.5.303.371-.21-.535.543-1.402 1.259-.832.772-1.626 1.512-1.194 1.182-.137.05.729-.808 1.66-1.534.927-.728 1.845-1.44 1.599-1.3-.477.209.224-.379-.264-.144l-.449.428c-.656.33-1.023.302-.837.1.542-.303-.126.316-.802.928-.65.658-1.317 1.304-.913.965l-.386.187c.332-.302 1.272-1.047 1.738-1.156-.058-.103.44-.44.852-.728l.162-.07c.416-.312 1.052-.651.69-.62-1.303.77-1.023.26-.723-.274.299-.533.62-1.092-.704-.361 1.22-.405-.243.44-1.36 1.142-.152-.006-.71.21-1.543.684-.677.477-.352.35-.447.492-.414.204-1.13.712-1.12.525-.417.527-.892.535-1.468 1.065-.474.505.078.025-.24.404l-1.325 1.096c-.456.375-.853.778-1.162 1.046-.313.124-1.17.64-.799.002 1.152-1.077-.207.653.938-.517-.71.267.985-1.065 1.093-1.402a4.664 4.664 0 00-.9.64c-.328.3-.673.646-.98.97l.155-.096c-.262.293-.687.7-1.085 1.142-.404.44-.828.868-1.173 1.129.062-.217-.248.005.127-.44l-.746.79c-.064.13-.13.261.087.034-.25.406-.56.772-.916 1.084-.04.006-.266.308-.581.753-.306.453-.667 1.075-1.034 1.676-.733 1.206-1.31 2.454-1.308 2.352-.425.65-.633.746-.919 1.46.01.03.223-.373.531-.98l1.215-2.14c.923-1.486 1.831-2.855 1.535-2.427-.244.23-1.5 2.078-2.536 4.016-.539.956-.985 1.957-1.383 2.7-.349.77-.61 1.311-.71 1.397-.257.519-.529 1.16-.369 1.087-.432.875-.073-.358-.44.238.009.022.072-.028-.02.174l-.391.561c-.466 1.456-1.402 3.502-1.639 5.103.025-.476-.025-1.046.192-2.068l.116-.151c.018-.149.277-.962.167-.978-.2.45-.382.873-.518 1.316-.133.468-.247.942-.34 1.42-.084.174-.179.38-.25.514.014 0 .03-.011.045-.003-.166.305-.166.269-.17.137-.002-.017-.006-.039-.002-.075-.25.249-.427 1.215-.636 2.318-.163 1.115-.345 2.37-.546 3.252-.032.533.046.058.011.723-.211.9-.331 1.673-.453 2.457-.14.783-.207 1.585-.287 2.554.11.625.164.67.34-.067a17.65 17.65 0 00-.075 1.454c-.375-1.338-.329 2.744-.705 1.28-.099.435-.035 1.325.065 2.151.11.076.22.198.345 1.23.054 1.452.019 1.11.094 2.313-.072.3-.192-.127-.278-.064.466 1.815-.014 1.662.408 3.39.233 1.087.92 3.173 1.113 3.163.467 1.411.333 1.463.12 1.383" fill="#ECEEF1"/>
  <path fill-rule="evenodd" clip-rule="evenodd" d="M10.445 42.57c0-5.994-.085-7.81-2.616-7.81-2.553 0-2.66 1.816-2.66 7.81 0 6.018.107 7.592 2.66 7.592 2.531 0 2.616-1.574 2.616-7.592zm5.213 0c0 4.354-3.11 7.79-7.829 7.79C3.11 50.36 0 46.924 0 42.57c0-4.332 3.11-8.007 7.829-8.007 4.719 0 7.829 3.675 7.829 8.007zm16.412-3.631c0-4.18-.558-3.982-3.067-3.982h-.665v7.898h.665c2.788 0 3.067.044 3.067-3.916zm6.907 11.027v.196h-4.269c-1.523 0-1.994-.985-2.508-5.053-.28-2.188-2.853-2.057-2.853-2.057h-1.01v4.639c0 2.143.087 2.275.987 2.275v.196h-6.413v-.196c.923 0 1.116-.044 1.116-2.275V36.882c0-1.357-.172-1.948-1.116-1.948v-.175h6.092c4.268 0 8.108.526 8.108 4.18 0 3.281-2.96 3.96-5.019 3.96 2.466 0 3.71.547 4.761 4.486.43 1.662 1.566 2.537 2.124 2.58zm21.967-5.558v.197c-1.48 0-1.372.131-1.372 4.507-1.073.766-3.196 1.248-5.492 1.248-4.632 0-8.235-3.26-8.235-7.899 0-4.66 3.603-7.898 8.235-7.898 2.94 0 4.096.328 5.427 1.225l-.408 4.31h-.171c0-5.076-3.453-5.339-4.848-5.339-2.444 0-2.959 1.685-2.959 7.702 0 6.017.557 7.701 2.96 7.701 1.651 0 2.316-.83 2.316-2.953 0-2.385-.322-2.604-1.501-2.604v-.197h6.048zm12.594-3.61l-1.908 4.923h4.052l-2.144-4.922zm2.167-6.039h.107c5.427 12.69 5.79 13.413 5.79 13.413.773 1.75 1.503 1.772 1.93 1.815v.175h-7.505v-.175c1.715 0 .43-2.559.43-2.559l-.689-1.51h-4.203c-.429 1.006-.043 4.07 2.531 4.07v.174H67.92v-.175c.643-.043 1.801-.218 3.453-4.07l4.333-11.158zm26.214 15.403l-8.086-11.749v6.827c0 1.75.108 4.726 3.24 4.726v.196H90.25v-.196c2.96 0 3.39-2.998 3.39-4.726v-7.089l-1.01-1.467c-1.285-1.727-2.122-1.705-2.679-1.75v-.175h6.841l7.293 10.744V39.66c0-2.035-.688-4.727-3.068-4.727v-.175h6.499v.175c-2.659 0-3.238 2.692-3.238 4.727v10.501h-2.36zm19.823-15.403v.175c-.901 0-1.394.023-1.394 1.948v10.809c0 2.078.493 2.275 1.394 2.275v.196h-7.079v-.196c.902 0 1.395-.197 1.395-2.275V36.882c0-1.925-.472-1.948-1.395-1.948v-.175h7.079zm21.043 10.153l.215 4.42c-.579.392-2.745 1.028-5.019 1.028-4.59 0-8.665-2.954-8.665-7.899s4.075-7.898 8.665-7.898c2.768 0 4.505.59 5.019 1.006l-.215 4.42h-.17c-.644-4.53-3.068-5.23-4.634-5.23-2.381 0-3.388 1.707-3.388 7.702 0 6.017 1.072 7.701 3.388 7.701 1.458 0 3.903-.897 4.634-5.25h.17z" fill="#272525"/>
  <path fill-rule="evenodd" clip-rule="evenodd" d="M31.494 54.44v1.371h-.11c-.189-1.312-1.816-1.26-2.098-1.26h-.32v2.408h.355c.101 0 1.054.023 1.148-.748h.11v1.63h-.11c-.094-.778-1.047-.755-1.148-.755h-.356v1.616c0 .786.27.845.588.845v.111h-1.896v-.11c.313 0 .407-.328.407-.831v-3.373c0-.46-.087-.793-.407-.793v-.111h3.837zm7.13.045c-.864 0-1.395.57-1.395 2.601 0 2.038.53 2.528 1.395 2.528.857 0 1.381-.49 1.381-2.528 0-2.031-.524-2.601-1.38-2.601zm0 5.24c-1.598 0-2.433-1.165-2.433-2.639 0-1.468.835-2.713 2.433-2.713 1.6 0 2.434 1.245 2.434 2.713 0 1.474-.834 2.638-2.434 2.638zm9.753-5.24c-.864 0-1.395.57-1.395 2.601 0 2.038.53 2.528 1.395 2.528.857 0 1.381-.49 1.381-2.528 0-2.031-.524-2.601-1.38-2.601zm0 5.24c-1.598 0-2.433-1.165-2.433-2.639 0-1.468.835-2.713 2.433-2.713 1.599 0 2.434 1.245 2.434 2.713 0 1.474-.835 2.638-2.434 2.638zm9.063-5.174h-.32v4.996h.32c.741 0 1.89-.097 1.89-2.484 0-2.349-1.134-2.512-1.89-2.512zm0 5.107h-1.744v-.11c.312 0 .517-.334.517-.84V55.39c0-.46-.197-.838-.517-.838v-.111h1.744c1.446 0 2.964.451 2.964 2.623 0 2.209-1.518 2.595-2.964 2.595zm9.659-4.054l.524.785c.95-.637.784-1.423.465-1.831-.212-.215-.517-.311-.778-.215-.378.135-.56.735-.211 1.261zm1.083 3.032l-1.185-1.743-.363.238c-.408.296-.69 1.03-.124 1.749a.988.988 0 001.672-.245zm2.332.162c0 .6-.437.882-.836.926 0 0-.72.068-1.009-.37l-.408-.608c-.275.845-1.765 1.475-2.492.445-.727-1.016.225-1.83.799-2.171l.364-.223-.386-.593c-.683-.963-.226-1.89.59-2.03.487-.09.827.044 1.053.304.283.34.603 1.214-.501 2.015l.915 1.386c.277-.622.646-.763.835-.808.153-.037.357-.023.486.09a.408.408 0 01.151.29.417.417 0 01-.107.31.42.42 0 01-.594.052.4.4 0 01-.138-.29c0-.156-.393-.037-.575.445l.575.845a.77.77 0 00.602.341c.255 0 .509-.082.567-.356h.109zM77.2 54.55h-.319v4.996h.32c.74 0 1.888-.097 1.888-2.484 0-2.349-1.133-2.512-1.889-2.512zm0 5.107h-1.744v-.11c.313 0 .517-.334.517-.84V55.39c0-.46-.196-.838-.517-.838v-.111H77.2c1.447 0 2.965.451 2.965 2.623 0 2.209-1.518 2.595-2.965 2.595zm9.332-5.107h-.225v2.61h.225c.77 0 1.367 0 1.367-1.305 0-1.32-.626-1.305-1.367-1.305zm3.175 5.107h-.611c-1.119-.008-.966-.008-1.43-1.616-.219-.77-.924-.77-1.018-.77h-.34v1.549c0 .512.202.726.508.726v.111H84.94v-.11c.311 0 .487-.209.487-.772v-3.61c0-.46-.168-.615-.487-.615v-.111h1.591c1.445 0 2.361.178 2.361 1.416 0 .956-.568 1.275-1.388 1.348.48-.014 1.017.171 1.38 1.653.145.563.633.674.822.69v.111zm6.688-5.218v.11c-.313 0-.568.164-.568.624v3.639c0 .505.261.734.568.734v.111h-2.028v-.11c.312 0 .566-.23.566-.735v-3.64c0-.459-.247-.622-.566-.622v-.111h2.028zm10.364 0v.11c-1.076-.006-1.054 1.41-1.054 1.75v3.358h-.312l-3.131-4.07v2.195c0 .334-.008 1.764.973 1.764v.111h-2.15v-.11c1.067 0 1.067-1.431 1.067-1.765V55.47l-.291-.378c-.465-.594-.674-.527-.864-.542v-.111h1.562l3.037 3.907V56.3c0-.34 0-1.756-.973-1.75v-.11h2.136zm9.913 5.218h-.959c-.771 0-.937-.223-1.708-1.341-.414-.608-.77-1.083-.77-1.083l.958-1.185c.212-.245 1.257-1.475.067-1.498v-.111h2.2v.11c-.508 0-.965.098-2.535 2.15.587.8 1.173 1.6 1.758 2.402.342.459.842.445.989.445v.111zm-3.241-5.218v.11c-.321 0-.596.083-.596.624v3.639c0 .505.204.734.516.734v.111h-1.904v-.11c.305 0 .487-.23.487-.735v-3.64c0-.459-.174-.622-.487-.622v-.111h1.984z" fill="#000"/>
</svg>
