<svg xmlns="http://www.w3.org/2000/svg" fill="none" viewBox="0 0 180 85">
  <path fill-rule="evenodd" clip-rule="evenodd" d="M2.515 29.88V7.985c0-3.506.25-5.057-2.515-5.057v-.517h17.97v.517c-2.701 0-2.575.92-2.575 5.057V30.28c0 6.782 3.896 9.654 9.864 9.654 6.724 0 10.116-4.252 10.116-9.654V15.34c0-4.712-1.634-12.412-7.603-12.412v-.517h16.463l.063.517c-7.039 0-8.358 7.7-8.358 12.412v14.94c0 7.586-5.529 13.102-16.587 13.102-8.546 0-16.838-4.138-16.838-13.504zm69.99-5.171c-2.135 2.24-5.78 2.47-8.294.574-1.192-1.037-2.01-2.243-2.01-3.564 0-.747-2.01-.345-4.587 3.22v11.434c0 3.16.313 5.459 2.577 6.033v.459H44.482v-.459c2.389-.633 2.45-3.104 2.45-6.033V22.352c0-2.012-.754-2.816-3.329-3.677v-.46l14.01-2.414v8.045c4.462-6.15 6.347-6.837 8.231-7.643 1.76-.747 4.4-.402 6.033.92 2.45 1.953 2.764 5.4.629 7.586zm25.947 5.227c0-6.721-1.76-12.411-6.284-12.411-4.209 0-5.152 4.711-5.152 9.137v6.09c0 6.55 1.445 10.113 5.216 10.113 3.518 0 6.22-3.735 6.22-12.929zm12.629-.806c0 11.38-8.294 14.253-16.336 14.253-4.964 0-7.918-1.093-9.614-2.53-2.01 1.208-8.734 2.645-8.734 1.724V6.549c0-1.953-.628-2.814-3.203-3.677v-.46L87.016 0v20.168c1.822-2.873 4.963-4.367 10.807-4.367 8.671 0 13.258 6.206 13.258 13.33zm19.097-.286c-5.152 1.035-5.088 4.54-5.088 7.24 0 0-.064 3.794 2.451 3.794 1.067 0 1.946-.805 2.637-2.185v-8.849zm15.708 10.343c-.879 2.529-4.146 4.196-8.104 4.196 0 0-6.976 0-7.54-5.171-.817 2.986-4.022 5.17-8.483 5.17-2.387 0-7.854-.976-7.854-5.86 0-5.745 5.09-6.839 16.273-9.252v-3.68c0-5.972-3.707-9.193-8.042-7.123 0 0-1.383.747.755 1.435 1.067.345 1.76 1.151 2.261 2.184.942 2.128-.126 4.426-2.45 5.345a4.89 4.89 0 01-3.39-.046c-1.08-.419-1.938-1.207-2.392-2.197-.628-1.492-.313-3.217.754-4.25.755-.748 1.885-1.781 4.211-2.93 2.828-1.38 5.906-1.208 5.906-1.208 8.231 0 12.817 4.712 12.817 11.492v8.562s0 4.137 3.016 4.024c0 0 1.572 0 1.885-.979l.377.287z" fill="#272525"/>
  <path fill-rule="evenodd" clip-rule="evenodd" d="M180 42.406v.459h-15.708v-.459c2.388-.633 2.514-3.16 2.514-6.092V24.766c0-3.275-1.318-4.827-4.337-4.827-1.38 0-2.825 1.033-3.705 2.24v14.194c0 3.16.314 5.459 2.575 6.033v.459h-15.708v-.459c2.388-.633 2.451-3.047 2.451-6.033v-14.02c0-2.013-.691-2.817-3.268-3.677v-.461l13.95-2.414v5.573c1.632-3.043 4.962-5.573 8.356-5.573 5.027 0 10.305 1.838 10.305 8.734v11.78c0 3.16.376 5.575 2.575 6.091" fill="#272525"/>
  <path fill-rule="evenodd" clip-rule="evenodd" d="M29.822 80.537c.352.66.992.738 1.596.86-.451-.636-.94-.919-1.596-.86zm1.607.876a.022.022 0 01.01-.008.093.093 0 01-.021-.007l.011.015zm118.452-26.629l-.502.032c.167.03.341.02.502-.032" fill="#EFC5CD"/>
  <path fill-rule="evenodd" clip-rule="evenodd" d="M149.034 55.31l-.092.84c-.949.277-.208-.505-1.129-.467-.03-.69.819-.82 1.566-.867-.668-.097-1.322-.613-1.615.134-.624-.3.093-.838-.66-1.152-.545.193-1.273.848-1.883.427l.014-.12c-1.491-.746-2.34.992-3.7.259l.155-.228c-.475-.41-1.451.105-2.318-.34.247.145.452.649-.08.718-.999-.456-1.701-.037-2.426-.592l-.728.659c-3.518-.21-17.455.436-20.994.466l.141-.106c-5.4.216-16.462-.084-22.058.72-.843-.682-2.037-.552-2.93-.76.493.289.308.756-.08.72-2.738-.138-.199.456-2.975.676-3.207.547-15.394-.43-18.208-1.06-1.55.945-3.426.162-4.933.748l.156-.227c-1.61.33-10.643-.779-12.513-.472l.246.147c-1.638.573-1.389-.495-2.657-.857.138 1.102-1.27 1.696-1.8 1.766l.025-.24c-.801.168-2.639 1.08-3.963 1.198l.068-.599c-1.117.62-3.18.306-3.973.35-1.803-.288-4.563-1.397-7.004-.657l-1.517-1.75-.234.166s-3.071 20.627.004 25.104l-.066.599.634-.064c.75.312 1.118-.374 1.052.222l-1.037-.096c.756.191.217.497-.083.83.317.064.624.143.871.334.157-.227-.104-.252-.219-.384.415-.202 1-.754 1.493-.466.779.074.022.973.931 1.06 4.786.57 9.418 1.369 14.271 1.343.104.25-.026.24-.17.347 1.468-.226 2.764-.102 4.102-.342.364.278.452.649.556.9-.205-.503 7.363-.377 7.478-.244l.123-1.082c1.44.017.386 1.247 1.722 1.011.562-1.52 2.205.209 2.688-.595-.015.12.636.181.583.66.22-.828.674-.179 1.09-.38.157-.228-.101-.25-.207-.506l.949-.271c.36.274.44.766.038.847 2.45.354 14.237 1.415 16.897 1.06-.325-.636-1.155-.228-1.438-1.225.715-.537 1.026.217 1.35-.358.229 1.475 1.53.387 2.021 1.886l.223-.826.334.515c3.105-.795.715-.405 3.44-.148 1.585-.093 2.366-1.23 3.234-.787-.13-.01-.464-.528-.05-.731.05.731 1.104-.499 1.284.243.403-.084 1.7.04 1.288-.97.206.504 1.36.735.658 1.153.39.036.764.193 1.053-.022l-.494-.29c1.324-.114 2.022.676 2.907-.209l-.477-.409c.79-.046 1.452-.105 1.737.889l-.821.286c1.311.004 2.104-.043 3.209-.543l-.388-.038c1.416-.954 8.711-1.608 10.026-2.816l-.57-.781 1.119-.622c-.13-.012-.598 2.481-.702 2.228 2.362-.02 14.658-.338 16.825.227.868.445.125 1.224.112 1.344 1.079-.262.485-.804 1.392-.717.245.143-.066.6-.209.705.401-.08.764.195.803-.164-.49-.29-.255-1.237-.449-1.86l1.17.11-.07.6c.262.022.707-1.63 1.849-1.28 1.933.303 4.046.141 5.993.322-.04.36-.455.564-.872.766.261.024.663-.058.896.206-.452-.647.83-.406.47-.682 1.468-1.437 3.283-.053 4.569-1.023.145-1.318 3.311-22.637 3.354-24.208.391.036.779.074.894.207-.09-.373-.854-.566-1.271-.364" fill="#C7C9CD"/>
  <path fill-rule="evenodd" clip-rule="evenodd" d="M52.137 63.754v1.677h-3.584v1.948h3.16v1.678h-3.16v2.103h3.584v1.677H46.14v-9.083h5.997zm11.33 5.885h2.343l-1.171-3.227-1.172 3.227zm3.5 3.198l-.551-1.521H62.86l-.55 1.521h-2.568l3.442-9.083h2.936l3.43 9.083h-2.583zm9.55-7.38V63.78h7.818v1.677h-2.709v7.38h-2.413v-7.38h-2.695zm21.718-1.703v1.677H94.65v1.948h3.16v1.678h-3.16v2.103h3.584v1.677h-5.998v-9.083h5.998zm10.947 1.703v2.18h1.495c.368 0 .657-.098.868-.296.108-.104.192-.226.247-.36a.977.977 0 00.072-.42c.006-.146-.02-.29-.076-.427a1.092 1.092 0 00-.25-.367 1.155 1.155 0 00-.394-.239 1.23 1.23 0 00-.467-.071h-1.495zm0 3.857v3.523h-2.411V63.78h3.906c1.147 0 2.042.27 2.681.812.64.542.96 1.196.96 1.962 0 .524-.173 1.037-.522 1.535-.347.499-.917.854-1.707 1.06l2.427 3.688h-2.824l-2.228-3.523h-.282zm18.47 3.523h-2.413v-2.915l-3.428-6.142h2.737l1.904 4.09 1.892-4.09h2.737l-3.429 6.142v2.915z" fill="#fff"/>
</svg>
