<svg xmlns="http://www.w3.org/2000/svg" viewBox="0 0 30 30">
  <path d="M24.602 3c-4.075-.004-6.32 2.277-7.7 6.727.72-.266 1.446-.598 2.102-.598 1.379 0 1.84.512 1.64 2.105-.062.996-.456 2.606-1.64 4.465C17.82 17.492 16.789 18 16.199 18c-.722 0-1.27-1.04-1.86-3.828-.198-.797-.655-2.59-1.183-5.973-.46-3.12-1.988-4.797-4.156-4.597-.918.062-2.02.918-3.86 2.511C3.829 7.31 2.583 8.172 1.2 9.367l1.316 1.688c1.246-.864 1.968-1.196 2.168-1.196.918 0 1.77 1.457 2.625 4.446.722 2.722 1.511 5.445 2.234 8.164 1.117 2.988 2.496 4.449 4.074 4.449 2.63 0 5.781-2.387 9.524-7.3 3.68-4.65 5.527-8.497 5.66-11.22.129-3.582-1.313-5.332-4.2-5.398zm0 0" fill-rule="nonzero" fill="#2c343c" fill-opacity="1"/>
</svg>
